<svg height="511pt" viewBox="-98 1 511 511.99999" width="511pt" xmlns="http://www.w3.org/2000/svg"><path d="m288.628906 512-13.601562-52.03125-83.007813-48.125h-69.027343l-83.007813 48.125-13.601563 52.03125" fill="#6198ce"/><path d="m217.109375 426.386719-11.132813 55.554687-48.460937-35.570312-48.480469 35.570312-11.121094-55.554687 25.078126-14.542969h69.039062zm0 0" fill="#e83842"/><path d="m192.042969 372.683594v39.160156c0 14.941406-9.480469 27.652344-22.757813 32.464844-3.671875 1.339844-7.636718 2.0625-11.769531 2.0625h-.007813c-19.0625 0-34.515624-15.453125-34.515624-34.527344v-39.148438zm0 0" fill="#e8b094"/><path d="m192.042969 397.40625v14.4375c0 14.941406-9.480469 27.652344-22.757813 32.464844-13.273437-4.800782-22.753906-17.523438-22.753906-32.464844v-9.917969c3.609375.335938 7.269531.503907 10.976562.503907 12 0 23.589844-1.757813 34.535157-5.023438zm0 0" fill="#ffdbcc"/><path d="m136.019531 462.140625 21.496094 31.65625 21.5-31.65625-21.507813-15.769531zm0 0" fill="#fc5f61"/><path d="m302.167969 129.960938v108.390624l-200.046875-.816406-87.359375-.355468v-140.800782c0-22.914062 22.167969-39.265625 44.054687-32.519531 12.324219-39.167969 48.441406-63.859375 87.003906-63.859375 10.578126 0 21.320313 1.851562 31.816407 5.773438.460937.167968.917969.347656 1.378906.523437l52.824219 20.652344c42.414062 16.582031 70.328125 57.46875 70.328125 103.011719zm0 0" fill="#545d68"/><path d="m101.710938 79.148438c0 36.617187 29.722656 77.335937 29.722656 77.335937l-29.3125 81.050781-87.359375-.355468v-140.800782c0-22.914062 22.167969-39.265625 44.054687-32.519531 12.324219-39.167969 48.441406-63.859375 87.003906-63.859375 10.578126 0 21.320313 1.851562 31.816407 5.773438-40.132813-14.375-75.925781 37.175781-75.925781 73.375zm0 0" fill="#3b454f"/><path d="m277.945312 232.316406c1.546876-.242187 3.167969-.355468 4.851563-.355468 19.25 0 31.722656 15.597656 31.722656 34.847656s-17.941406 45.554687-37.191406 45.554687c-4.332031 0-7.933594-1.328125-10.914063-3.609375h-217.808593c-2.980469 2.28125-6.582031 3.609375-10.914063 3.609375-19.25 0-37.191406-26.304687-37.191406-45.554687s12.472656-34.847656 31.722656-34.847656c1.683594 0 3.304688.113281 4.851563.355468" fill="#e8b094"/><path d="m40.570312 294.058594c-3.5625 0-6.785156-2.445313-7.632812-6.0625-1.449219-6.105469-6.390625-17.503906-11.785156-17.503906-4.332032 0-7.84375-3.511719-7.84375-7.847657 0-4.332031 3.511718-7.84375 7.84375-7.84375 19.617187 0 26.363281 26.597657 27.070312 29.632813.980469 4.21875-1.648437 8.4375-5.867187 9.417968-.601563.136719-1.199219.207032-1.785157.207032zm0 0" fill="#db9784"/><path d="m274.449219 294.046875c-.59375 0-1.195313-.066406-1.796875-.207031-4.210938-.988282-6.832032-5.191406-5.851563-9.40625.703125-3.03125 7.449219-29.632813 27.066407-29.632813 4.332031 0 7.847656 3.511719 7.847656 7.847657 0 4.332031-3.515625 7.84375-7.847656 7.84375-5.394532 0-10.335938 11.40625-11.785157 17.511718-.855469 3.605469-4.078125 6.042969-7.632812 6.042969zm0 0" fill="#db9784"/><path d="m66.246094 111.195312c68.945312 75.078126 211.699218 78.214844 211.699218 78.214844v67.890625c0 33.257813-13.484374 63.359375-35.277343 85.152344-21.792969 21.800781-51.902344 35.277344-85.160157 35.277344-66.511718 0-120.433593-53.921875-120.433593-120.429688v-67.523437c0-30.039063 10.988281-57.488282 29.171875-78.582032zm0 0" fill="#ffdbcc"/><path d="m77.699219 257.300781v-67.523437c0-20.300782 5.019531-39.414063 13.886719-56.1875-9.15625-6.644532-17.699219-14.074219-25.339844-22.390625 0-.003907 0-.003907 0-.003907-18.183594 21.09375-29.171875 48.546876-29.171875 78.582032v67.523437c0 66.507813 53.921875 120.429688 120.433593 120.429688 6.921876 0 13.707032-.589844 20.3125-1.710938-56.835937-9.65625-100.121093-59.132812-100.121093-118.71875zm0 0" fill="#e8b094"/><path d="m157.511719 289.277344c-6.835938 0-13.257813-2.660156-18.089844-7.492188-3.066406-3.066406-3.066406-8.035156 0-11.097656 3.0625-3.066406 8.03125-3.066406 11.09375 0 1.871094 1.867188 4.351563 2.898438 6.996094 2.898438 2.640625 0 5.121093-1.03125 6.992187-2.898438 3.066406-3.066406 8.035156-3.066406 11.09375 0 3.066406 3.0625 3.066406 8.03125.003906 11.097656-4.832031 4.832032-11.257812 7.492188-18.089843 7.492188zm0 0" fill="#db9784"/><path d="m157.511719 328.472656c-6.835938 0-13.257813-2.660156-18.089844-7.496094-3.066406-3.0625-3.066406-8.03125 0-11.097656 3.0625-3.0625 8.03125-3.0625 11.09375 0 1.871094 1.871094 4.351563 2.898438 6.996094 2.898438 2.640625 0 5.121093-1.027344 6.992187-2.898438 3.066406-3.0625 8.035156-3.0625 11.09375 0 3.066406 3.066406 3.066406 8.035156.003906 11.097656-4.832031 4.835938-11.257812 7.496094-18.089843 7.496094zm0 0" fill="#db9784"/><path d="m187.851562 319.253906h37.664063c0-16.753906-13.585937-30.339844-30.339844-30.339844h-37.664062c0 16.757813 13.582031 30.339844 30.339843 30.339844zm0 0" fill="#545d68"/><path d="m127.171875 319.253906h-37.664063c0-16.753906 13.582032-30.339844 30.339844-30.339844h37.664063c0 16.757813-13.582031 30.339844-30.339844 30.339844zm0 0" fill="#545d68"/><path d="m174.285156 228.683594c0 22.839844 18.515625 41.34375 41.355469 41.34375 17.839844 0 33.039063-11.285156 38.847656-27.117188 1.621094-4.433594 2.511719-9.226562 2.511719-14.226562 0-22.851563-18.519531-26.960938-41.359375-26.960938-5.953125 0-11.621094.28125-16.738281 1.109375-14.5 2.3125-24.617188 8.964844-24.617188 25.851563zm0 0" fill="#72cec0"/><path d="m58.019531 228.683594c0 22.839844 18.507813 41.34375 41.34375 41.34375 17.851563 0 33.050781-11.285156 38.835938-27.117188 1.632812-4.433594 2.523437-9.226562 2.523437-14.226562 0-22.851563-18.507812-26.960938-41.359375-26.960938-5.953125 0-11.613281.28125-16.726562 1.109375-14.5 2.3125-24.617188 8.964844-24.617188 25.851563zm0 0" fill="#72cec0"/><path d="m198.882812 204.074219c0 22.851562 18.515626 41.359375 41.355469 41.359375 5.011719 0 9.8125-.890625 14.25-2.523438 1.621094-4.433594 2.511719-9.226562 2.511719-14.226562 0-22.851563-18.519531-26.960938-41.359375-26.960938-5.953125 0-11.621094.28125-16.738281 1.109375-.011719.40625-.019532.824219-.019532 1.242188zm0 0" fill="#c9fff7"/><path d="m82.613281 204.074219c0 22.851562 18.507813 41.359375 41.359375 41.359375 5 0 9.792969-.890625 14.226563-2.523438 1.632812-4.433594 2.523437-9.226562 2.523437-14.226562 0-22.851563-18.507812-26.960938-41.359375-26.960938-5.953125 0-11.613281.28125-16.726562 1.109375-.011719.40625-.023438.824219-.023438 1.242188zm0 0" fill="#c9fff7"/><path d="m285.554688 221.546875c-1.050782-4.207031-5.3125-6.761719-9.511719-5.710937l-12.3125 3.074218c-6.109375-25.015625-36.03125-25.039062-48.082031-25.039062-11.699219 0-40.230469.015625-47.488282 22.878906-6.925781-2.195312-14.371094-2.195312-21.296875 0-7.257812-22.863281-35.789062-22.878906-47.484375-22.878906-12.054687 0-41.976562.023437-48.085937 25.039062l-12.316407-3.074218c-4.203124-1.054688-8.460937 1.503906-9.511718 5.710937-1.050782 4.203125 1.503906 8.460937 5.710937 9.511719l15.40625 3.847656c3.074219 24.199219 23.777344 42.972656 48.796875 42.972656 25.652344 0 46.773438-19.738281 48.996094-44.828125 5.707031-3.027343 12.566406-3.027343 18.273438 0 2.222656 25.089844 23.34375 44.828125 49 44.828125 25.015624 0 45.71875-18.773437 48.792968-42.972656l15.402344-3.847656c4.207031-1.050782 6.761719-5.308594 5.710938-9.511719zm-186.175782 40.640625c-18.480468 0-33.511718-15.03125-33.511718-33.511719 0-12.101562 5.484374-19.109375 33.511718-19.109375 28.023438 0 33.507813 7.007813 33.507813 19.109375 0 18.480469-15.035157 33.511719-33.507813 33.511719zm116.269532 0c-18.476563 0-33.511719-15.03125-33.511719-33.511719 0-12.101562 5.484375-19.109375 33.511719-19.109375 28.023437 0 33.507812 7.007813 33.507812 19.109375 0 18.480469-15.035156 33.511719-33.507812 33.511719zm0 0" fill="#545d68"/></svg>