<svg height="480pt" viewBox="0 -44 480 480" width="480pt" xmlns="http://www.w3.org/2000/svg"><path d="m112 112h64v240h-64zm0 0" fill="#9bc9ff"/><path d="m208 192h64v160h-64zm0 0" fill="#9bc9ff"/><path d="m400 8h64v344h-64zm0 0" fill="#9bc9ff"/><g fill="#1e81ce"><path d="m16 360h64c4.417969 0 8-3.582031 8-8v-192c0-4.417969-3.582031-8-8-8h-64c-4.417969 0-8 3.582031-8 8v192c0 4.417969 3.582031 8 8 8zm56-16h-48v-176h48"/><path d="m112 360h64c4.417969 0 8-3.582031 8-8v-240c0-4.417969-3.582031-8-8-8h-64c-4.417969 0-8 3.582031-8 8v240c0 4.417969 3.582031 8 8 8zm8-240h48v224h-48zm0 0"/><path d="m208 360h64c4.417969 0 8-3.582031 8-8v-160c0-4.417969-3.582031-8-8-8h-64c-4.417969 0-8 3.582031-8 8v160c0 4.417969 3.582031 8 8 8zm8-160h48v144h-48zm0 0"/><path d="m304 360h64c4.417969 0 8-3.582031 8-8v-248c0-4.417969-3.582031-8-8-8h-64c-4.417969 0-8 3.582031-8 8v248c0 4.417969 3.582031 8 8 8zm8-248h48v232h-48zm0 0"/><path d="m400 360h64c4.417969 0 8-3.582031 8-8v-344c0-4.417969-3.582031-8-8-8h-64c-4.417969 0-8 3.582031-8 8v344c0 4.417969 3.582031 8 8 8zm8-344h48v328h-48zm0 0"/><path d="m472 376h-464c-4.417969 0-8 3.582031-8 8s3.582031 8 8 8h464c4.417969 0 8-3.582031 8-8s-3.582031-8-8-8zm0 0"/></g></svg>