<svg height="496pt" viewBox="0 0 496 496" width="496pt" xmlns="http://www.w3.org/2000/svg"><path d="m432 88h-40v-40h-288v40h-40v-40h-56v104h480v-104h-56zm0 0" fill="#57a4ff"/><path d="m488 40h-48v-32c0-4.417969-3.582031-8-8-8h-40c-4.417969 0-8 3.582031-8 8v32h-272v-32c0-4.417969-3.582031-8-8-8h-40c-4.417969 0-8 3.582031-8 8v32h-48c-4.417969 0-8 3.582031-8 8v440c0 4.417969 3.582031 8 8 8h480c4.417969 0 8-3.582031 8-8v-440c0-4.417969-3.582031-8-8-8zm-248 120v96h-104v-96zm120 0v96h-104v-96zm120 0v96h-104v-96zm-240 112v96h-104v-96zm0 112v96h-104v-96zm16 0h104v96h-104zm0-16v-96h104v96zm120-96h104v96h-104zm24-256h24v64h-24zm-328 0h24v64h-24zm-56 40h40v32c0 4.417969 3.582031 8 8 8h40c4.417969 0 8-3.582031 8-8v-32h272v32c0 4.417969 3.582031 8 8 8h40c4.417969 0 8-3.582031 8-8v-32h40v88h-464zm0 104h104v96h-104zm104 112v96h-104v-96zm-104 112h104v96h-104zm360 96v-96h104v96zm0 0" fill="#004fac"/></svg>