<svg id="Layer_1" enable-background="new 0 0 512.051 512.051" height="512" viewBox="0 0 512.051 512.051" width="512" xmlns="http://www.w3.org/2000/svg"><g><path d="m256.025 330.662-167.997 76.867v104.522l167.997-76.867 167.997 76.867v-104.522z" fill="#5bc980"/><path d="m256.025 330.662v104.522l167.997 76.867v-104.522z" fill="#00a78e"/><path d="m88.028 60.004v380.517l167.997-76.868 167.997 76.868v-380.517z" fill="#bee75e"/><path d="m256.025 60.004v303.65-.001l167.997 76.868v-380.517z" fill="#5bc980"/><path d="m292.735 193.553-36.71-38.104-36.709 38.104-48.168-11.923 21.573 104.288h126.609l21.573-104.288z" fill="#fff16b"/><path d="m28.024 0h85.005v80.003h-85.005z" fill="#595959"/><path d="m399.022 0h85.005v80.003h-85.005z" fill="#595959"/><path d="m399.022 0h85.005v80.003h-85.005z" fill="#454040"/><path d="m340.903 181.63-48.168 11.923-36.71-38.104v130.469h63.305z" fill="#ffd321"/><g><path d="m88.028 0h335.994v80.003h-335.994z" fill="#5bc980"/></g><g><path d="m256.025.001h167.997v80.002h-167.997z" fill="#00a78e"/></g></g></svg>