<?xml version="1.0"?>
<svg xmlns="http://www.w3.org/2000/svg" height="512px" viewBox="0 -64 512 512" width="512px"><g><path d="m453.332031 384h-394.664062c-32.363281 0-58.667969-26.304688-58.667969-58.667969v-266.664062c0-32.363281 26.304688-58.667969 58.667969-58.667969h394.664062c32.363281 0 58.667969 26.304688 58.667969 58.667969v266.664062c0 32.363281-26.304688 58.667969-58.667969 58.667969zm-394.664062-352c-14.699219 0-26.667969 11.96875-26.667969 26.667969v266.664062c0 14.699219 11.96875 26.667969 26.667969 26.667969h394.664062c14.699219 0 26.667969-11.96875 26.667969-26.667969v-266.664062c0-14.699219-11.96875-26.667969-26.667969-26.667969zm0 0" data-original="#000000" class="active-path" data-old_color="#000000" fill="#80858A"/><path d="m160 192c-29.398438 0-53.332031-23.9375-53.332031-53.332031 0-29.398438 23.933593-53.335938 53.332031-53.335938s53.332031 23.9375 53.332031 53.335938c0 29.394531-23.933593 53.332031-53.332031 53.332031zm0-74.667969c-11.753906 0-21.332031 9.578125-21.332031 21.335938 0 11.753906 9.578125 21.332031 21.332031 21.332031s21.332031-9.578125 21.332031-21.332031c0-11.757813-9.578125-21.335938-21.332031-21.335938zm0 0" data-original="#000000" class="active-path" data-old_color="#000000" fill="#80858A"/><path d="m240 298.667969c-8.832031 0-16-7.167969-16-16v-10.667969c0-14.699219-11.96875-26.667969-26.667969-26.667969h-74.664062c-14.699219 0-26.667969 11.96875-26.667969 26.667969v10.667969c0 8.832031-7.167969 16-16 16s-16-7.167969-16-16v-10.667969c0-32.363281 26.304688-58.667969 58.667969-58.667969h74.664062c32.363281 0 58.667969 26.304688 58.667969 58.667969v10.667969c0 8.832031-7.167969 16-16 16zm0 0" data-original="#000000" class="active-path" data-old_color="#000000" fill="#80858A"/><path d="m432 128h-117.332031c-8.832031 0-16-7.167969-16-16s7.167969-16 16-16h117.332031c8.832031 0 16 7.167969 16 16s-7.167969 16-16 16zm0 0" data-original="#000000" class="active-path" data-old_color="#000000" fill="#80858A"/><path d="m432 213.332031h-117.332031c-8.832031 0-16-7.167969-16-16s7.167969-16 16-16h117.332031c8.832031 0 16 7.167969 16 16s-7.167969 16-16 16zm0 0" data-original="#000000" class="active-path" data-old_color="#000000" fill="#80858A"/><path d="m432 298.667969h-117.332031c-8.832031 0-16-7.167969-16-16s7.167969-16 16-16h117.332031c8.832031 0 16 7.167969 16 16s-7.167969 16-16 16zm0 0" data-original="#000000" class="active-path" data-old_color="#000000" fill="#80858A"/></g> </svg>
