<?xml version="1.0" encoding="iso-8859-1"?>
<!-- Generator: Adobe Illustrator 19.0.0, SVG Export Plug-In . SVG Version: 6.00 Build 0)  -->
<svg version="1.1" id="Capa_1" xmlns="http://www.w3.org/2000/svg" xmlns:xlink="http://www.w3.org/1999/xlink" x="0px" y="0px"
	 viewBox="0 0 472.615 472.615" style="enable-background:new 0 0 472.615 472.615;" xml:space="preserve">
<g>
	<g>
		<polygon points="167.385,224.492 153.6,209.723 74.831,287.508 153.6,364.308 167.385,350.523 102.4,287.508 		"/>
	</g>
</g>
<g>
	<g>
		<polygon points="316.062,209.723 302.277,224.492 370.215,290.462 302.277,356.431 316.062,370.216 397.785,290.462 		"/>
	</g>
</g>
<g>
	<g>
		
			<rect x="142.571" y="275.347" transform="matrix(0.4472 -0.8944 0.8944 0.4472 -121.574 373.6743)" width="197.902" height="19.692"/>
	</g>
</g>
<g>
	<g>
		<path d="M0,0v472.615h472.615V0H0z M452.923,452.923H19.692V19.692h433.231V452.923z"/>
	</g>
</g>
<g>
	<g>
		<rect x="9.846" y="98.462" width="452.923" height="19.692"/>
	</g>
</g>
<g>
	<g>
		<rect x="59.077" y="49.231" width="39.385" height="19.692"/>
	</g>
</g>
<g>
	<g>
		<rect x="137.846" y="49.231" width="39.385" height="19.692"/>
	</g>
</g>
<g>
	<g>
		<rect x="226.462" y="49.231" width="177.231" height="19.692"/>
	</g>
</g>
<g>
</g>
<g>
</g>
<g>
</g>
<g>
</g>
<g>
</g>
<g>
</g>
<g>
</g>
<g>
</g>
<g>
</g>
<g>
</g>
<g>
</g>
<g>
</g>
<g>
</g>
<g>
</g>
<g>
</g>
</svg>
