<?xml version="1.0"?>
<svg xmlns="http://www.w3.org/2000/svg" height="512px" viewBox="0 0 368 368.002" width="512px"><g><path d="m312 256.003906c-30.871094 0-56 25.125-56 56 0 30.871094 25.128906 56 56 56s56-25.128906 56-56c0-30.875-25.128906-56-56-56zm0 96c-22.054688 0-40-17.945312-40-40 0-22.058594 17.945312-40 40-40s40 17.941406 40 40c0 22.054688-17.945312 40-40 40zm0 0" data-original="#000000" class="active-path" data-old_color="#000000" fill="#000000"/><path d="m269.65625 2.347656c-3.128906-3.128906-8.183594-3.128906-11.3125 0l-192 192c-3.128906 3.125-3.128906 8.183594 0 11.308594l18.34375 18.347656-82.34375 82.34375c-2.925781 2.917969-3.136719 7.597656-.488281 10.78125l40 48c1.441406 1.730469 3.535156 2.769532 5.785156 2.863282.121094.011718.238281.011718.359375.011718 2.121094 0 4.152344-.832031 5.65625-2.347656l86.34375-86.34375 22.34375 22.34375c1.558594 1.5625 3.609375 2.347656 5.65625 2.347656s4.097656-.785156 5.65625-2.347656l192-192c3.128906-3.125 3.128906-8.183594 0-11.308594zm-186.34375 197.65625 180.6875-180.691406 36.6875 36.691406-180.6875 180.6875zm-34.777344 148.148438-29.710937-35.65625 77.175781-77.183594 32.6875 32.691406zm119.464844-63.460938-36.6875-36.6875 180.6875-180.691406 36.6875 36.691406zm0 0" data-original="#000000" class="active-path" data-old_color="#000000" fill="#000000"/></g> </svg>
