<?xml version="1.0"?>
<svg xmlns="http://www.w3.org/2000/svg" height="512px" viewBox="0 0 512 512" width="512px" class=""><g><path d="m181.332031 405.332031h-122.664062c-32.363281 0-58.667969-26.300781-58.667969-58.664062v-245.335938c0-32.363281 26.304688-58.664062 58.667969-58.664062h309.332031c32.363281 0 58.667969 26.300781 58.667969 58.664062v85.335938c0 8.832031-7.167969 16-16 16s-16-7.148438-16-16v-85.335938c0-14.699219-11.96875-26.664062-26.667969-26.664062h-309.332031c-14.699219 0-26.667969 11.964843-26.667969 26.664062v245.335938c0 14.699219 11.96875 26.664062 26.667969 26.664062h122.664062c8.832031 0 16 7.167969 16 16s-7.167969 16-16 16zm0 0" data-original="#000000" class="active-path" data-old_color="#000000" fill="#FFFFFF"/><path d="m410.667969 160h-394.667969c-8.832031 0-16-7.167969-16-16s7.167969-16 16-16h394.667969c8.832031 0 16 7.167969 16 16s-7.167969 16-16 16zm0 0" data-original="#000000" class="active-path" data-old_color="#000000" fill="#FFFFFF"/><path d="m101.332031 117.332031c-8.832031 0-16-7.167969-16-16v-85.332031c0-8.832031 7.167969-16 16-16s16 7.167969 16 16v85.332031c0 8.832031-7.167969 16-16 16zm0 0" data-original="#000000" class="active-path" data-old_color="#000000" fill="#FFFFFF"/><path d="m325.332031 117.332031c-8.832031 0-16-7.167969-16-16v-85.332031c0-8.832031 7.167969-16 16-16s16 7.167969 16 16v85.332031c0 8.832031-7.167969 16-16 16zm0 0" data-original="#000000" class="active-path" data-old_color="#000000" fill="#FFFFFF"/><path d="m373.332031 512c-76.457031 0-138.664062-62.207031-138.664062-138.667969 0-76.457031 62.207031-138.664062 138.664062-138.664062 76.460938 0 138.667969 62.207031 138.667969 138.664062 0 76.460938-62.207031 138.667969-138.667969 138.667969zm0-245.332031c-58.816406 0-106.664062 47.847656-106.664062 106.664062 0 58.816407 47.847656 106.667969 106.664062 106.667969 58.816407 0 106.667969-47.851562 106.667969-106.667969 0-58.816406-47.851562-106.664062-106.667969-106.664062zm0 0" data-original="#000000" class="active-path" data-old_color="#000000" fill="#FFFFFF"/><path d="m373.332031 448c-8.832031 0-16-7.167969-16-16v-117.332031c0-8.832031 7.167969-16 16-16s16 7.167969 16 16v117.332031c0 8.832031-7.167969 16-16 16zm0 0" data-original="#000000" class="active-path" data-old_color="#000000" fill="#FFFFFF"/><path d="m432 389.332031h-117.332031c-8.832031 0-16-7.167969-16-16s7.167969-16 16-16h117.332031c8.832031 0 16 7.167969 16 16s-7.167969 16-16 16zm0 0" data-original="#000000" class="active-path" data-old_color="#000000" fill="#FFFFFF"/></g> </svg>
