<?xml version="1.0"?>
<svg xmlns="http://www.w3.org/2000/svg" height="512px" viewBox="0 0 512 512" width="512px" class=""><g><path d="m368 42.667969h-26.667969v-21.335938c0-11.773437-9.535156-21.332031-21.332031-21.332031s-21.332031 9.558594-21.332031 21.332031v21.335938h-170.667969v-21.335938c0-11.773437-9.535156-21.332031-21.332031-21.332031s-21.335938 9.558594-21.335938 21.332031v21.335938h-26.664062c-32.363281 0-58.667969 26.300781-58.667969 58.664062v240c0 35.285157 28.714844 64 64 64h106.667969c11.796875 0 21.332031-9.554687 21.332031-21.332031s-9.535156-21.332031-21.332031-21.332031h-106.667969c-11.777344 0-21.332031-9.578125-21.332031-21.335938v-170.664062h341.332031c0 11.773437 9.535156 21.332031 21.332031 21.332031s21.335938-9.558594 21.335938-21.332031v-69.335938c0-32.363281-26.304688-58.664062-58.667969-58.664062zm0 0" data-original="#000000" class="active-path" data-old_color="#000000" fill="#43D39E"/><path d="m373.332031 234.667969c-76.457031 0-138.664062 62.207031-138.664062 138.664062 0 76.460938 62.207031 138.667969 138.664062 138.667969 76.460938 0 138.667969-62.207031 138.667969-138.667969 0-76.457031-62.207031-138.664062-138.667969-138.664062zm53.335938 160h-32v32c0 11.773437-9.558594 21.332031-21.335938 21.332031-11.773437 0-21.332031-9.558594-21.332031-21.332031v-32h-32c-11.777344 0-21.332031-9.558594-21.332031-21.335938 0-11.773437 9.554687-21.332031 21.332031-21.332031h32v-32c0-11.777344 9.558594-21.332031 21.332031-21.332031 11.777344 0 21.335938 9.554687 21.335938 21.332031v32h32c11.773437 0 21.332031 9.558594 21.332031 21.332031 0 11.777344-9.558594 21.335938-21.332031 21.335938zm0 0" data-original="#000000" class="active-path" data-old_color="#000000" fill="#43D39E"/></g> </svg>
