<?xml version="1.0" encoding="iso-8859-1"?>
<!-- Generator: Adobe Illustrator 19.0.0, SVG Export Plug-In . SVG Version: 6.00 Build 0)  -->
<svg version="1.1" id="Layer_1" xmlns="http://www.w3.org/2000/svg" xmlns:xlink="http://www.w3.org/1999/xlink" x="0px" y="0px"
	 viewBox="0 0 511.999 511.999" style="enable-background:new 0 0 511.999 511.999;" xml:space="preserve">
<path style="fill:#694B4B;" d="M257.017,8.129c0,0-109.245,0.9-109.245,110.368s0,42.812,0,42.812s127.756-26.184,144.865-62.136
	c0,0,1.677,45.751,74.152,59.092C366.789,158.265,390.168,8.129,257.017,8.129z"/>
<path style="fill:#563B3B;" d="M171.867,118.497c0-89.961,73.767-106.596,100.061-109.67c-4.747-0.442-9.695-0.699-14.911-0.699
	c0,0-109.245,0.9-109.245,110.368c0,19.307,0,33.13,0,42.812c0,0,9.697-1.989,24.094-5.618
	C171.867,146.49,171.867,134.341,171.867,118.497z"/>
<g>
	<path style="fill:#324A5E;" d="M134,359.918c-0.118,0.05-0.241,0.095-0.382,0.142c-2.042,0.704-50.037,17.95-50.037,78.322v59.957
		h51.796v-62.934c0-3.049,2.481-5.53,5.53-5.53c3.05,0,5.531,2.481,5.531,5.53v70.676h77.082l-48.04-163.448L134,359.918z"/>
	<path style="fill:#324A5E;" d="M391.516,366.856c-7.448-4.833-13.122-6.789-13.165-6.803c-0.115-0.039-0.249-0.089-0.36-0.135
		l-39.526-16.472L295.077,498.34h70.481v-62.934c0-3.049,2.481-5.53,5.53-5.53s5.531,2.481,5.531,5.53v62.934h51.797v-59.958
		C428.416,399.059,408.352,377.782,391.516,366.856z"/>
</g>
<path style="fill:#FBCB99;" d="M294.006,112.129l-1.644-3.842l-2.893,3.014c-34.603,36.059-88.09,43.056-109.481,44.391
	l-2.594,0.161v60.021c0,39.308,31.982,71.288,71.291,71.288h16.665c39.308,0,71.285-31.981,71.285-71.288v-61.16l-1.857-0.645
	C312.618,146.375,300.374,127.015,294.006,112.129z M246.868,188.222c0-3.05,2.481-5.531,5.53-5.531c3.049,0,5.53,2.481,5.53,5.531
	v21.423h8.6c3.049,0,5.531,2.481,5.531,5.53c0,3.049-2.481,5.53-5.531,5.53h-14.129c-3.048,0-5.53-2.481-5.53-5.53v-26.953H246.868z
	"/>
<g>
	<path style="fill:#EDBA89;" d="M190.666,215.876v-60.021l2.594-0.161c20.128-1.256,68.674-7.534,103.166-38.316
		c-0.885-1.791-1.694-3.55-2.419-5.248l-1.644-3.842l-2.893,3.014c-34.603,36.059-88.09,43.056-109.481,44.391l-2.594,0.161v60.021
		c0,39.308,31.982,71.288,71.291,71.288h13.271C222.648,287.163,190.666,255.182,190.666,215.876z"/>
	<path style="fill:#EDBA89;" d="M350.972,164.238l-3.274-0.616v50.407l3.274-0.616c11.825-2.221,20.408-12.56,20.408-24.586
		C371.379,176.8,362.797,166.458,350.972,164.238z"/>
</g>
<path style="fill:#FBCB99;" d="M289.499,294.689l-3.46,0.899c-6.731,1.748-13.691,2.635-20.687,2.635h-16.665
	c-6.996,0-13.958-0.885-20.689-2.635l-3.46-0.899v30.979c0,0.256-0.025,0.534-0.079,0.876l-0.222,1.413l32.46,31.616l32.804-34.05
	v-30.834H289.499z"/>
<g>
	<path style="fill:#EDBA89;" d="M237.506,327.957l0.223-1.413c0.054-0.341,0.078-0.619,0.078-0.876v-28.17
		c-3.308-0.439-6.585-1.074-9.811-1.911l-3.46-0.899v30.98c0,0.256-0.025,0.534-0.079,0.876l-0.222,1.413l32.46,31.616l6.425-6.668
		L237.506,327.957z"/>
	<path style="fill:#EDBA89;" d="M166.336,214.03v-50.407l-3.273,0.616c-11.825,2.22-20.408,12.562-20.408,24.59
		c0,12.026,8.583,22.365,20.408,24.586L166.336,214.03z"/>
</g>
<g>
	<path style="fill:#EFF2F9;" d="M302.186,409.701c-1.751,0-3.477-0.556-4.915-1.615l-9.346-6.878l-5.9,15.717l7.859,48.712
		l15.9-56.763c-0.513,0.248-1.05,0.448-1.611,0.585C303.516,409.621,302.849,409.701,302.186,409.701z"/>
	<path style="fill:#EFF2F9;" d="M303.323,325.669c0,0.35-0.028,0.694-0.069,1.032c0.306,2.406-0.437,4.923-2.25,6.804l-31.98,33.197
		l30.06,22.122l24.333-50.015l-20.094-13.261V325.669z"/>
	<path style="fill:#EFF2F9;" d="M231.987,417.09l-6.758-16.13l-9.682,7.125c-1.439,1.06-3.165,1.615-4.916,1.615
		c-0.663,0-1.329-0.08-1.987-0.242c-0.033-0.009-0.066-0.022-0.099-0.029l15.658,55.896L231.987,417.09z"/>
	<path style="fill:#EFF2F9;" d="M189.401,338.811l24.333,50.015l30.292-22.294l-30.806-30.005c-2.306-2.247-3.019-5.507-2.133-8.387
		c-0.243-0.78-0.375-1.608-0.375-2.47v-0.923L189.401,338.811z"/>
</g>
<g>
	<polygon style="fill:#EF4C35;" points="267.835,422.706 246.203,422.706 234.179,497.234 279.857,497.234 	"/>
	<polygon style="fill:#EF4C35;" points="268.888,409.436 276.036,390.398 256.411,375.954 236.943,390.28 244.968,409.436 	"/>
</g>
<g>
	<path style="fill:#283D4C;" d="M146.891,360.06c0.141-0.047,0.262-0.092,0.382-0.142l29.597-12.334l-1.387-4.951l-41.48,17.285
		c-0.118,0.05-0.241,0.095-0.382,0.142c-2.042,0.704-50.037,17.95-50.037,78.322v59.957h13.271v-59.957
		C96.854,378.011,144.849,360.765,146.891,360.06z"/>
	<path style="fill:#283D4C;" d="M154.178,429.875c-3.049,0-5.53,2.481-5.53,5.53v62.934h11.06v-62.934
		C159.709,432.356,157.228,429.875,154.178,429.875z"/>
</g>
<g>
	<polygon style="fill:#DF3126;" points="246.203,422.706 234.179,497.234 247.45,497.234 259.474,422.706 	"/>
	<polygon style="fill:#DF3126;" points="263.046,380.838 256.411,375.954 236.943,390.28 244.968,409.436 258.238,409.436 
		250.213,390.28 	"/>
</g>
<g>
	<path style="fill:#202121;" d="M398.956,355.402c-0.002-0.001-0.004-0.003-0.007-0.004c-7.975-5.173-14.392-7.628-15.912-8.174
		l-46.279-19.286l-32.629-21.533c-0.314-0.208-0.641-0.382-0.972-0.541v-13.951c24.638-12.301,42.487-36.218,46.339-64.536
		c19.865-1.608,35.541-18.277,35.541-38.549c0-10.031-3.838-19.181-10.12-26.062v-49.508C374.918,50.807,324.111,0,261.66,0h-8.767
		c-62.446,0-113.25,50.807-113.25,113.257v48.955c-6.59,6.941-10.647,16.311-10.647,26.616c0,20.272,15.676,36.941,35.541,38.549
		c3.853,28.319,21.703,52.236,46.342,64.536v13.047l-34.011,22.443c-0.461,0.102-0.92,0.238-1.371,0.426l-46.534,19.392
		c-2.327,0.833-16.002,6.088-29.579,18.91c-13.44,12.692-29.461,35.528-29.461,72.25v65.485c0,4.49,3.638,8.131,8.129,8.131h96.024
		c4.49,0,8.129-3.638,8.129-8.129c0-4.49-3.638-8.129-8.129-8.129h-25.041v-60.335c0-4.49-3.638-8.129-8.129-8.129
		c-4.49,0-8.129,3.638-8.129,8.129v60.335H86.182v-57.358c0-58.562,46.342-75.194,48.286-75.864
		c0.182-0.062,0.361-0.128,0.538-0.203l38.763-16.154l41.9,149.577h-16.153c-4.49,0-8.129,3.638-8.129,8.129
		s3.638,8.129,8.129,8.129h26.84c0.009,0,0.017,0.002,0.026,0.002c0.01,0,0.021-0.002,0.031-0.002h61.234h0.022h0.091
		c0.01,0,0.021,0.002,0.031,0.002c0.009,0,0.017-0.002,0.026-0.002h146.128c4.49,0,8.129-3.656,8.129-8.145v-65.47
		C442.073,390.535,415.062,365.856,398.956,355.402z M225.301,400.703l6.856,16.367l-7.91,49.024l-15.942-56.912
		c0.127,0.038,0.25,0.085,0.379,0.116c0.644,0.158,1.296,0.236,1.947,0.236c1.717,0,3.409-0.544,4.818-1.582L225.301,400.703z
		 M245.961,407.942l-7.187-17.155l17.635-12.979l17.831,13.123l-6.387,17.01h-21.893V407.942z M281.853,416.908l5.994-15.962
		l9.522,7.008c1.41,1.038,3.101,1.582,4.818,1.582c0.65,0,1.303-0.078,1.947-0.236c0.675-0.167,1.314-0.426,1.913-0.75
		l-16.207,57.857L281.853,416.908z M323.63,338.752l-24.485,50.325l-30.373-22.354l32.11-33.331c1.783-1.85,2.508-4.326,2.201-6.689
		c0.043-0.339,0.073-0.682,0.073-1.033v-0.426L323.63,338.752z M350.297,210.889v-44.125c10.489,1.873,18.484,11.043,18.484,22.065
		C368.779,199.847,360.785,209.016,350.297,210.889z M252.894,16.258h8.767c53.487,0,97,43.513,97,97v38.898
		c-2.674-0.901-5.472-1.526-8.369-1.821c0-0.034-0.004-0.067-0.005-0.101c-0.004-0.179-0.011-0.358-0.027-0.534
		c-0.01-0.107-0.027-0.212-0.041-0.32c-0.021-0.155-0.041-0.31-0.07-0.463c-0.025-0.129-0.056-0.255-0.088-0.382
		c-0.03-0.126-0.06-0.25-0.096-0.374c-0.042-0.144-0.092-0.285-0.142-0.426c-0.037-0.103-0.072-0.205-0.112-0.306
		c-0.06-0.15-0.127-0.294-0.195-0.439c-0.042-0.09-0.085-0.181-0.13-0.27c-0.074-0.142-0.153-0.279-0.234-0.415
		c-0.053-0.09-0.105-0.18-0.163-0.267c-0.081-0.125-0.168-0.246-0.256-0.366c-0.068-0.093-0.135-0.188-0.208-0.277
		c-0.085-0.106-0.173-0.207-0.262-0.309c-0.086-0.098-0.172-0.195-0.262-0.289c-0.085-0.088-0.173-0.171-0.262-0.255
		c-0.103-0.098-0.206-0.194-0.314-0.286c-0.089-0.076-0.182-0.146-0.274-0.218c-0.114-0.089-0.228-0.177-0.347-0.259
		c-0.1-0.069-0.204-0.133-0.307-0.198c-0.117-0.074-0.233-0.147-0.354-0.216c-0.12-0.067-0.244-0.128-0.368-0.19
		c-0.109-0.054-0.218-0.109-0.331-0.159c-0.147-0.065-0.298-0.121-0.45-0.177c-0.098-0.036-0.193-0.075-0.293-0.107
		c-0.168-0.055-0.339-0.1-0.512-0.144c-0.073-0.018-0.143-0.044-0.217-0.061c-31.812-7.236-41.411-47.307-41.501-47.695
		c-0.704-3.115-3.17-5.529-6.299-6.168c-3.129-0.641-6.343,0.61-8.216,3.2c-36.155,49.981-114.76,50.462-116.044,50.462
		c-0.004,0-0.008,0-0.01,0c-0.012,0-0.024,0-0.035,0c-0.28,0-0.556,0.014-0.829,0.042c-0.086,0.009-0.168,0.027-0.254,0.039
		c-0.185,0.025-0.371,0.048-0.552,0.085c-0.117,0.024-0.229,0.06-0.344,0.088c-0.145,0.037-0.292,0.067-0.434,0.112
		c-0.132,0.041-0.259,0.094-0.388,0.141c-0.119,0.043-0.241,0.081-0.357,0.13c-0.148,0.063-0.289,0.137-0.434,0.208
		c-0.091,0.046-0.186,0.085-0.276,0.133c-0.146,0.079-0.284,0.169-0.425,0.257c-0.081,0.051-0.166,0.095-0.245,0.148
		c-0.131,0.089-0.255,0.188-0.38,0.284c-0.081,0.062-0.166,0.118-0.245,0.183c-0.114,0.094-0.219,0.197-0.328,0.297
		c-0.082,0.076-0.17,0.147-0.249,0.227c-0.102,0.102-0.195,0.212-0.292,0.319c-0.077,0.086-0.159,0.167-0.233,0.257
		c-0.087,0.104-0.164,0.217-0.245,0.325c-0.075,0.1-0.154,0.196-0.224,0.3c-0.072,0.105-0.133,0.217-0.199,0.326
		c-0.069,0.114-0.144,0.225-0.208,0.342c-0.059,0.107-0.107,0.22-0.16,0.329c-0.062,0.127-0.128,0.25-0.183,0.38
		c-0.046,0.107-0.08,0.219-0.121,0.328c-0.052,0.139-0.108,0.275-0.153,0.417c-0.035,0.112-0.059,0.227-0.089,0.34
		c-0.039,0.145-0.082,0.289-0.113,0.438c-0.025,0.118-0.038,0.241-0.056,0.361c-0.024,0.147-0.052,0.294-0.067,0.443
		c-0.013,0.126-0.014,0.255-0.021,0.382c-0.007,0.116-0.017,0.232-0.02,0.349c-2.706,0.275-5.327,0.836-7.841,1.642v-38.719
		C155.901,59.771,199.411,16.258,252.894,16.258z M145.254,188.828c0-11.022,7.994-20.192,18.484-22.065v44.125
		C153.248,209.016,145.254,199.847,145.254,188.828z M179.996,215.876v-57.585c20.779-1.278,75.99-8.174,111.522-45.369
		c6.127,14.414,18.816,35.462,42.521,43.641v59.311c0,37.875-30.813,68.689-68.686,68.689h-16.665
		C210.81,284.564,179.996,253.75,179.996,215.876z M248.687,300.822h16.665c7.444,0,14.663-0.97,21.548-2.777v26.428l-30.263,31.414
		l-29.624-28.854c0.075-0.444,0.124-0.898,0.124-1.365v-16.248c0-0.004,0-0.008,0-0.012v-11.365
		C234.022,299.852,241.242,300.822,248.687,300.822z M210.88,324.439v1.23c0,0.861,0.137,1.69,0.384,2.468
		c-0.893,2.835-0.202,6.055,2.072,8.271l30.946,30.142l-30.609,22.528l-24.484-50.325L210.88,324.439z M235.933,495.74l11.542-71.54
		h19.086l11.541,71.54H235.933z M425.816,495.74h-46.599v-60.335c0-4.49-3.638-8.129-8.129-8.129s-8.129,3.638-8.129,8.129v60.335
		h-64.454l41.671-148.766l36.815,15.342c0.158,0.066,0.348,0.138,0.51,0.193c0.054,0.02,5.489,1.915,12.6,6.527
		c0.001,0.001,0.002,0.001,0.003,0.002c16.292,10.576,35.712,31.191,35.712,69.344L425.816,495.74L425.816,495.74z"/>
	<path style="fill:#202121;" d="M266.526,223.303c4.49,0,8.129-3.638,8.129-8.129s-3.638-8.129-8.129-8.129h-6v-18.823
		c0-4.49-3.638-8.129-8.129-8.129c-4.49,0-8.129,3.638-8.129,8.129v26.952c0,4.49,3.638,8.129,8.129,8.129H266.526z"/>
</g>
<g>
</g>
<g>
</g>
<g>
</g>
<g>
</g>
<g>
</g>
<g>
</g>
<g>
</g>
<g>
</g>
<g>
</g>
<g>
</g>
<g>
</g>
<g>
</g>
<g>
</g>
<g>
</g>
<g>
</g>
</svg>
