<?xml version="1.0"?>
<svg xmlns="http://www.w3.org/2000/svg" xmlns:xlink="http://www.w3.org/1999/xlink" version="1.1" id="Capa_1" x="0px" y="0px" viewBox="0 0 512 512" style="enable-background:new 0 0 512 512;" xml:space="preserve" width="512px" height="512px" class=""><g><g>
	<g>
		<g>
			<path d="M202.667,330.667h106.667c5.896,0,10.667-4.771,10.667-10.667s-4.771-10.667-10.667-10.667H202.667     c-5.896,0-10.667,4.771-10.667,10.667S196.771,330.667,202.667,330.667z" data-original="#000000" class="active-path" data-old_color="#000000" fill="#43D39E"/>
			<path d="M202.667,373.333h106.667c5.896,0,10.667-4.771,10.667-10.667S315.229,352,309.333,352H202.667     c-5.896,0-10.667,4.771-10.667,10.667S196.771,373.333,202.667,373.333z" data-original="#000000" class="active-path" data-old_color="#000000" fill="#43D39E"/>
			<path d="M256,0C114.844,0,0,114.844,0,256s114.844,256,256,256s256-114.844,256-256S397.156,0,256,0z M362.667,394.667     c0,5.896-4.771,10.667-10.667,10.667H160c-5.896,0-10.667-4.771-10.667-10.667V277.333h213.333V394.667z M426.667,277.333     C426.667,300.865,407.531,320,384,320v-42.667c5.896,0,10.667-4.771,10.667-10.667c0-5.896-4.771-10.667-10.667-10.667H128     c-5.896,0-10.667,4.771-10.667,10.667c0,5.896,4.771,10.667,10.667,10.667V320c-23.531,0-42.667-19.135-42.667-42.667v-64     c0-23.531,19.135-42.667,42.667-42.667h21.333v-53.333c0-5.896,4.771-10.667,10.667-10.667h192     c5.896,0,10.667,4.771,10.667,10.667v53.333H384c23.531,0,42.667,19.135,42.667,42.667V277.333z" data-original="#000000" class="active-path" data-old_color="#000000" fill="#43D39E"/>
			<circle cx="373.333" cy="202.667" r="10.667" data-original="#000000" class="active-path" data-old_color="#000000" fill="#43D39E"/>
		</g>
	</g>
</g></g> </svg>
