<?xml version="1.0"?>
<svg xmlns="http://www.w3.org/2000/svg" xmlns:xlink="http://www.w3.org/1999/xlink" version="1.1" id="Capa_1" x="0px" y="0px" viewBox="0 0 512 512" style="enable-background:new 0 0 512 512;" xml:space="preserve" width="512px" height="512px"><g><g>
	<g>
		<path d="M512,317V45c0-24.813-20.187-45-45-45H45C20.187,0,0,20.187,0,45v242c0,4.881,0,208.156,0,210c0,8.284,6.716,15,15,15    c9.233,0,485.184,0,497,0v-30c0-24.024-9.786-46.693-27.554-63.83c-6.089-5.873-12.843-10.804-20.06-14.769    C475.222,392.54,482,377.877,482,362c0-0.857-0.031-1.708-0.07-2.557C499.425,353.271,512,336.58,512,317z M60,482    c0-33.084,26.916-60,60-60s60,26.916,60,60H60z M90,362c0-16.542,13.458-30,30-30s30,13.458,30,30s-13.458,30-30,30    S90,378.542,90,362z M195,432.309c-7.997-12.03-18.806-22.033-31.484-29.066C173.72,392.482,180,377.965,180,362    c0-33.084-26.916-60-60-60s-60,26.916-60,60c0,15.965,6.28,30.482,16.484,41.243C48.79,418.606,30,448.148,30,482    c0-10.639,0-187.183,0-195c0-41.355,33.645-75,75-75h186.577c6.883,0,12.883-4.685,14.552-11.363l24.314-97.27    c2.001-7.981,10.089-12.972,18.202-10.921c8.019,2.003,12.912,10.168,10.909,18.196l-29.998,119.992    C327.883,237.326,321.897,242,315,242h-90c-8.284,0-15,6.716-15,15c0,99.756-0.252,93.747,0.589,96.689    c-2.572,18.468,3.484,36.466,15.895,49.554C213.806,410.276,202.996,420.279,195,432.309z M90,137c0-24.813,20.187-45,45-45    s45,20.187,45,45s-20.187,45-45,45S90,161.813,90,137z M210,482c0-33.084,26.916-60,60-60s60,26.916,60,60H210z M240,362    c0-16.542,13.458-30,30-30s30,13.458,30,30s-13.458,30-30,30S240,378.542,240,362z M345,432.309    c-7.997-12.03-18.806-22.033-31.484-29.066C323.72,392.482,330,377.965,330,362h30c0,15.965,6.28,30.482,16.484,41.243    C363.806,410.276,352.996,420.279,345,432.309z M482,482H360c0-33.084,26.916-60,60-60C453.607,422,482,449.477,482,482z M390,362    c0-16.542,13.458-30,30-30c17.047,0,32,14.019,32,30c0,15.981-14.953,30-32,30C403.458,392,390,378.542,390,362z M482,317    c0,6.259-3.856,11.629-9.315,13.874C461.636,313.705,441.931,302,420,302c-22.159,0-41.537,12.084-51.928,30h-46.144    c-10.391-17.916-29.769-30-51.928-30c-10.925,0-21.167,2.949-30,8.072V272h75c20.688,0,38.643-14.018,43.661-34.089l30-119.999    c6.009-24.08-8.68-48.561-32.701-54.561c-24.05-6.083-48.549,8.521-54.618,32.731L279.865,182h-84.906    C204.397,169.456,210,153.871,210,137c0-41.355-33.645-75-75-75s-75,33.645-75,75c0,18.507,6.752,35.457,17.904,48.552    C59.451,190.485,42.987,200.33,30,213.596V45c0-8.271,6.729-15,15-15h422c8.271,0,15,6.729,15,15V317z" data-original="#000000" class="active-path" data-old_color="#000000" fill="#80858A"/>
	</g>
</g></g> </svg>
