<?xml version="1.0"?>
<svg xmlns="http://www.w3.org/2000/svg" id="Layer_1" enable-background="new 0 0 512 512" height="512px" viewBox="0 0 512 512" width="512px"><g><g><path d="m439.233 7.963c-2.602-4.9-7.698-7.963-13.247-7.963h-69.992c-4.982 0-9.64 2.474-12.429 6.602l-63.15 93.456c-7.451-3.385-15.712-5.287-24.415-5.287s-16.965 1.902-24.416 5.287l-63.15-93.456c-2.788-4.128-7.446-6.602-12.428-6.602h-69.992c-5.549 0-10.645 3.063-13.247 7.963-2.603 4.9-2.288 10.837.818 15.435l84.184 124.583h-38.752c-8.284 0-15 6.716-15 15v334.019c0 8.284 6.716 15 15 15h273.967c8.284 0 15-6.716 15-15v-334.019c0-8.284-6.716-15-15-15h-38.752l84.184-124.583c3.105-4.597 3.42-10.534.817-15.435zm-212.754 197.381c8.698 5.022 18.775 7.912 29.521 7.912s20.822-2.89 29.521-7.912v26.083h-59.041v-26.083zm58.763-51.33c0 16.124-13.118 29.243-29.242 29.243s-29.242-13.118-29.242-29.243 13.118-29.243 29.242-29.243 29.242 13.118 29.242 29.243zm-170.989-124.014h33.785l60.175 89.053c-6.073 8.279-10.058 18.18-11.15 28.928h-3.087zm263.73 452h-243.966v-304.019h62.463v68.446c0 8.284 6.716 15 15 15h89.041c8.284 0 15-6.716 15-15v-68.446h62.463v304.019zm-59.959-334.019h-3.087c-1.092-10.748-5.077-20.649-11.15-28.928l60.175-89.053h33.785z" data-original="#000000" class="active-path" data-old_color="#000000" fill="#80858A"/><path d="m310.367 372.606c-4.698-4.291-9.839-7.97-15.306-10.999 5.775-7.948 9.194-17.713 9.194-28.267 0-26.578-21.623-48.202-48.201-48.202-26.579 0-48.202 21.623-48.202 48.202 0 10.556 3.42 20.323 9.197 28.271-5.67 3.143-10.992 6.978-15.834 11.479-14.864 13.82-23.909 32.542-25.471 52.717-.03.385-.045.771-.045 1.157v12.692c0 8.284 6.716 15 15 15h130.602c8.284 0 15-6.716 15-15v-13.919c0-.48-.023-.959-.069-1.437-1.91-19.843-11.095-38.202-25.865-51.694zm-54.313-57.468c10.036 0 18.201 8.165 18.201 18.202s-8.165 18.201-18.201 18.201c-10.037 0-18.202-8.165-18.202-18.201s8.165-18.202 18.202-18.202zm-50.01 109.519c3.618-24.442 24.942-43.116 50.01-43.116 25.33 0 46.401 18.363 50.012 43.116z" data-original="#000000" class="active-path" data-old_color="#000000" fill="#80858A"/></g></g> </svg>
