<?xml version="1.0"?>
<svg xmlns="http://www.w3.org/2000/svg" id="Layer_1" enable-background="new 0 0 512 512" height="512px" viewBox="0 0 512 512" width="512px"><g><path d="m417.174 367.407c-16.384-5.171-58.837-14.942-88.067-21.477 11.865-11.189 20.814-22.033 27.797-33.512 12.587-20.691 18.387-42.801 18.253-69.504l.001-10.492c0-.021.003-.042.003-.063v-103.799l58.251-25.311c5.467-2.375 9.008-7.761 9.022-13.721.015-5.96-3.501-11.363-8.956-13.765l-169.208-74.491c-3.806-1.676-8.138-1.696-11.957-.057l-173.661 74.491c-5.501 2.359-9.073 7.764-9.087 13.75s3.532 11.407 9.022 13.792l60.209 26.162c-.149.849-.241 1.717-.241 2.608v100.34c0 .012.002.023.002.035v10.372c-.135 26.829 5.665 48.962 18.252 69.653 6.963 11.447 15.884 22.261 27.699 33.417-29.756 6.537-73.209 16.373-89.682 21.572-37.528 11.845-61.777 41.973-61.777 76.756v52.837c0 8.284 6.716 15 15 15h415.902c8.284 0 15-6.716 15-15v-52.838c0-34.782-24.249-64.911-61.777-76.755zm-144.157 21.96c0 8.91-7.248 16.158-16.158 16.158s-16.158-7.249-16.158-16.158v-8.344c5.296 1.12 10.714 1.703 16.157 1.703 5.444 0 10.863-.583 16.159-1.704zm-58.239 18.932-7.384 10.75-35.011-39.792c15.239-3.414 29.343-6.482 38.317-8.417v18.527c0 6.746 1.467 13.151 4.078 18.932zm21.154 22.19c6.287 3.212 13.396 5.037 20.927 5.037 7.53 0 14.638-1.824 20.925-5.036l7.349 10.698-29.131 33.105-28.168-32.014zm69.64-12.53-6.634-9.657c2.612-5.782 4.079-12.188 4.079-18.934v-18.486c8.692 1.909 22.155 4.89 36.754 8.213zm-47.423-386.604 131.854 58.046-134.003 58.227-133.591-58.048zm-8.126 146.385c1.906.829 3.941 1.243 5.978 1.243s4.071-.414 5.978-1.243l83.184-36.145v45.274l-.002 30.488h-176.604v-25.007c0-.006-.001-.013-.001-.02v-49.991zm-81.41 69.618h176.493c-.496 19.015-4.93 34.834-13.833 49.469-9.165 15.068-23.126 29.294-45.267 46.126-8.292 6.303-18.644 9.774-29.149 9.774-10.658 0-20.738-3.38-29.148-9.774-22.142-16.832-36.103-31.058-45.269-46.126-8.883-14.604-13.315-30.407-13.827-49.469zm-105.564 196.804c0-26.003 21.079-41.92 40.807-48.147 7.176-2.265 20.325-5.579 35.284-9.124l83.682 95.109h-159.773zm385.902 37.838h-159.771l83.752-95.178c14.865 3.57 27.986 6.913 35.213 9.194 19.728 6.226 40.807 22.144 40.807 48.146v37.838z" data-original="#000000" class="active-path" data-old_color="#000000" fill="#80858A"/></g> </svg>
