<svg height="512pt" viewBox="-32 0 511 512" width="512pt" xmlns="http://www.w3.org/2000/svg"><path d="m237.769531 97.53125c-5.621093-2.316406-12.078125-1.011719-16.359375 3.300781l-47.855468 48.199219c-5.835938 5.878906-5.800782 15.375.078124 21.210938 5.878907 5.839843 15.375 5.804687 21.210938-.074219l22.210938-22.371094v124.269531c0 8.285156 6.714843 15 15 15 8.285156 0 15-6.714844 15-15v-160.667968c0-6.074219-3.664063-11.550782-9.285157-13.867188zm0 0"/><path d="m446.648438 426.023438-63.476563-126.964844c20.777344-30.644532 32.929687-67.589844 32.929687-107.324219 0-105.722656-86.011718-191.734375-191.734374-191.734375-105.722657 0-191.734376 86.011719-191.734376 191.734375 0 39.734375 12.152344 76.683594 32.933594 107.332031l-63.484375 126.957032c-2.324219 4.652343-2.0742185 10.171874.65625 14.59375 2.734375 4.421874 7.5625 7.117187 12.761719 7.117187h72.832031l43.699219 58.265625c2.851562 3.796875 7.304688 6 12 6 6.222656 0 11.125-3.710938 13.417969-8.292969l60.1875-120.371093c2.234375.078124 4.476562.132812 6.730469.132812 2.253906 0 4.496093-.054688 6.730468-.132812l60.1875 120.371093c2.285156 4.574219 7.191406 8.292969 13.417969 8.292969 4.691406 0 9.148437-2.203125 11.996094-6l43.703125-58.265625h72.832031c5.199219 0 10.027344-2.695313 12.757813-7.117187 2.734374-4.421876 2.984374-9.941407.65625-14.59375zm-305.175782 42.558593-33.640625-44.847656c-2.832031-3.777344-7.277343-6-12-6h-56.0625l46.546875-93.085937c26.429688 27.4375 60.929688 47.050781 99.644532 54.953124zm82.894532-115.113281c-89.179688 0-161.734376-72.554688-161.734376-161.734375s72.554688-161.734375 161.734376-161.734375c89.179687 0 161.734374 72.554688 161.734374 161.734375s-72.554687 161.734375-161.734374 161.734375zm128.53125 64.265625c-4.71875 0-9.164063 2.222656-12 6l-33.636719 44.847656-44.492188-88.980469c38.71875-7.90625 73.222657-27.515624 99.652344-54.960937l46.539063 93.089844h-56.0625zm0 0"/></svg>