<svg id="Layer_35" enable-background="new 0 0 64 64" height="512" viewBox="0 0 64 64" width="512" xmlns="http://www.w3.org/2000/svg"><path d="m16 62h-10c0-6.05 3.66-11.5 9.26-13.79l6.06-2.48-1.32 5.27 4 3-2 3 5 5z" fill="#ff826e"/><path d="m48 62h-11l5-5-2-3 4-3-1.32-5.27 6.06 2.48c2.8 1.15 5.12 3.08 6.73 5.49 1.61 2.4 2.53 5.28 2.53 8.3z" fill="#ff826e"/><path d="m26.46 54.57 2.54 7.43h-2l-5-5 2-3-4-3 1.32-5.27 1.87-.76z" fill="#fc6e51"/><path d="m42.68 45.73 1.32 5.27-4 3 2 3-5 5h-2l2.54-7.43 3.27-9.6z" fill="#fc6e51"/><path d="m32 49 5.54 5.57-2.54 7.43h-6l-2.54-7.43z" fill="#e6e9ed"/><path d="m40.81 44.97-3.27 9.6-5.54-5.57 5.54-5.54c.29.23.61.42.95.56z" fill="#ccd1d9"/><path d="m32 49-5.54 5.57-3.27-9.6 2.32-.95c.34-.14.66-.33.95-.56z" fill="#ccd1d9"/><path d="m20 22c-2.21 0-4 1.79-4 4v-12.9c0-2.97 2.09-5.52 5-6.1l3 8-.68.34c-1.82.91-3.04 2.67-3.28 4.66-.03.23-.04.47-.04.71z" fill="#656d78"/><path d="m48 16.49v9.51c0-1.1-.45-2.1-1.17-2.83-.73-.72-1.73-1.17-2.83-1.17h-.02c-.05-.71-.22-1.38-.5-2-.85-1.92-2.68-3.32-4.88-3.54l-14.6-1.46-3-8 .76-.76c2.71-2.71 6.4-4.24 10.24-4.24h1.51c8 0 14.49 6.49 14.49 14.49z" fill="#656d78"/><path d="m37.86 33.85.9 3c-.84.83-1.76 1.57-2.76 2.22-1.23.8-2.57 1.45-4 1.93-1.43-.48-2.77-1.13-4-1.93-1-.65-1.92-1.39-2.76-2.22l.9-3c.51-1.69 2.07-2.85 3.84-2.85h4.04c1.77 0 3.33 1.16 3.84 2.85z" fill="#cf9e76"/><g fill="#f0d0b4"><path d="m37.54 43.46-5.54 5.54-5.54-5.54c.96-.74 1.54-1.89 1.54-3.15v-1.24c1.23.8 2.57 1.45 4 1.93 1.43-.48 2.77-1.13 4-1.93v1.24c0 1.26.58 2.41 1.54 3.15z"/><path d="m46.83 23.17c.72.73 1.17 1.73 1.17 2.83 0 2.21-1.79 4-4 4h-.94c.61-1.78.94-3.69.94-5.65v-1.92c0-.15-.01-.29-.02-.43h.02c1.1 0 2.1.45 2.83 1.17z"/><path d="m20 22v2.35c0 1.96.33 3.87.94 5.65h-.94c-1.1 0-2.1-.45-2.83-1.17-.72-.73-1.17-1.73-1.17-2.83 0-2.21 1.79-4 4-4z"/><path d="m43.98 22c-.05-.71-.22-1.38-.5-2-.85-1.92-2.68-3.32-4.88-3.54l-14.6-1.46-.68.34c-1.82.91-3.04 2.67-3.28 4.66-.03.23-.04.47-.04.71v1.29 2.35c0 1.96.33 3.87.94 5.65.56 1.65 1.36 3.21 2.37 4.61.58.8 1.22 1.55 1.93 2.24l.9-3c.51-1.69 2.07-2.85 3.84-2.85h4.04c1.77 0 3.33 1.16 3.84 2.85l.9 3c1.94-1.9 3.42-4.25 4.3-6.85.61-1.78.94-3.69.94-5.65v-1.92c0-.15-.01-.29-.02-.43z"/></g><path d="m42 20v3c0 1.66-1.34 3-3 3h-2c-1.66 0-3-1.34-3-3 0-.35.06-.69.18-1 .14-.43.39-.81.7-1.12.54-.54 1.29-.88 2.12-.88z" fill="#69d6f4"/><path d="m29.82 22c.12.31.18.65.18 1 0 .83-.34 1.58-.88 2.12s-1.29.88-2.12.88h-2c-1.66 0-3-1.34-3-3v-3h5c1.31 0 2.42.83 2.82 2z" fill="#69d6f4"/><path d="m49.123 47.289-10.259-4.198c-1.133-.463-1.864-1.553-1.864-2.777v-.718c3.077-2.126 5.427-5.126 6.759-8.597h.241c2.757 0 5-2.243 5-5v-9.515c0-8.537-6.947-15.484-15.485-15.484h-1.515c-4.136 0-8.025 1.611-10.95 4.536l-.552.552c-3.204.787-5.498 3.686-5.498 7.011v12.901c0 2.757 2.243 5 5 5h.241c1.332 3.471 3.682 6.47 6.759 8.597v.718c0 1.224-.731 2.313-1.864 2.776l-10.259 4.197c-6 2.455-9.877 8.23-9.877 14.712v1h54v-1c0-6.482-3.877-12.257-9.877-14.711zm-6.254 3.309-3.926 2.945 2.473-7.247.42.172zm-15.455 10.402-4.127-4.127 1.923-2.884 2.392 7.011zm-5.25-14.532.42-.172 2.473 7.247-3.926-2.945zm5.447 8.366 4.389-4.415 4.389 4.417-2.104 6.164h-4.57zm8.787 6.166 2.393-7.011 1.923 2.884-4.128 4.127zm3.164-15.462-2.452 7.185-3.698-3.721 4.271-4.271c.14.073.276.151.424.211zm-7.562-5.596c-2.129-.757-4.025-1.923-5.623-3.385l.726-2.42c.383-1.278 1.538-2.137 2.873-2.137h4.048c1.335 0 2.49.859 2.873 2.138l.726 2.419c-1.598 1.463-3.494 2.628-5.623 3.385zm5-20.942c-1.474 0-2.75.81-3.444 2h-3.113c-.694-1.19-1.97-2-3.444-2h-5.691c.428-1.182 1.283-2.178 2.455-2.764l.424-.212 14.309 1.431c1.246.125 2.337.699 3.136 1.545zm4 2v2c0 1.103-.897 2-2 2h-2c-1.103 0-2-.897-2-2s.897-2 2-2zm-12 2c0 1.103-.897 2-2 2h-2c-1.103 0-2-.897-2-2v-2h4c1.103 0 2 .897 2 2zm15.414 5.958c.379-1.482.586-3.025.586-4.607v-1.167c1.161.414 2 1.514 2 2.816 0 1.512-1.129 2.754-2.586 2.958zm-12.414-25.958h1.515c7.436 0 13.485 6.049 13.485 13.485v5.54c-.617-.467-1.337-.797-2.128-.937-.575-2.987-3.038-5.31-6.175-5.624l-13.979-1.398-2.556-6.815.302-.302c2.548-2.546 5.934-3.949 9.536-3.949zm-11.612 5.218 2.362 6.3c-2.313 1.213-3.75 3.568-3.75 6.19v.393c-.743.152-1.416.482-2 .924v-8.926c0-2.194 1.385-4.128 3.388-4.881zm-3.388 17.782c0-1.302.839-2.402 2-2.816v1.167c0 1.582.207 3.125.586 4.607-1.457-.204-2.586-1.446-2.586-2.958zm4-3c0 2.206 1.794 4 4 4h2c2.206 0 4-1.794 4-4h2c0 2.206 1.794 4 4 4h2c2.206 0 4-1.794 4-4v1.351c0 3.951-1.394 7.648-3.787 10.544l-.4-1.332c-.639-2.131-2.564-3.563-4.789-3.563h-4.048c-2.225 0-4.15 1.432-4.789 3.563l-.4 1.332c-2.393-2.896-3.787-6.593-3.787-10.544zm10.684 18.949.316.105.316-.105c.947-.316 1.855-.702 2.719-1.152.095.995.479 1.914 1.089 2.664l-4.124 4.125-4.125-4.125c.61-.75.994-1.669 1.089-2.664.864.449 1.773.836 2.72 1.152zm-5.791 2.993c.148-.061.284-.138.424-.211l4.271 4.271-3.698 3.72-2.452-7.185zm-10.259 4.197 4.233-1.732-.999 3.995 3.774 2.831-1.93 2.895 3.874 3.872h-7.586v-6h-2v6h-7.965c.373-5.255 3.665-9.842 8.599-11.861zm33.366 11.861v-6h-2v6h-7.586l3.873-3.873-1.93-2.895 3.774-2.831-.999-3.994 4.233 1.732c4.934 2.018 8.226 6.605 8.599 11.86h-7.964z"/><path d="m30 34h4v2h-4z"/></svg>