<svg height="512pt" viewBox="-123 0 512 512" width="512pt" xmlns="http://www.w3.org/2000/svg"><path d="m254.90625 62.632812c0 34.589844-28.042969 62.632813-62.632812 62.632813-34.59375 0-62.632813-28.042969-62.632813-62.632813 0-34.589843 28.039063-62.632812 62.632813-62.632812 34.589843 0 62.632812 28.042969 62.632812 62.632812zm0 0" fill="#3c3b41"/><path d="m265.917969 445.753906v58.640625c0 4.195313-3.414063 7.605469-7.609375 7.605469h-234.785156c-4.195313 0-7.609376-3.410156-7.609376-7.605469v-58.640625c0-29.714844 19.523438-55.90625 48.011719-64.386718l13.503907-4.019532c6.84375-2.03125 12.503906-6.472656 16.128906-12.234375 1.558594-2.453125 2.734375-5.144531 3.484375-7.988281.640625-2.371094.96875-4.855469.96875-7.390625v-27.335937l79.128906-13.304688v38.652344c0 7.347656 2.792969 14.203125 7.503906 19.375 3.453125 3.792968 7.9375 6.691406 13.089844 8.238281l20.183594 6.007813c28.488281 8.484374 48 34.671874 48 64.386718zm0 0" fill="#ffdba9"/><path d="m217.917969 381.367188-20.183594-6.007813c-5.152344-1.546875-9.636719-4.445313-13.089844-8.238281-4.710937-5.171875-7.503906-12.027344-7.503906-19.375v-38.652344l-79.128906 13.304688v15.652343l49.832031-8.378906v38.652344c0 7.347656 2.792969 14.203125 7.503906 19.375 3.453125 3.792969 7.9375 6.691406 13.089844 8.238281l20.179688 6.007812c28.492187 8.484376 48.003906 34.671876 48.003906 64.386719v45.667969h21.691406c4.195312 0 7.605469-3.410156 7.605469-7.605469v-58.640625c0-29.714844-19.511719-55.902344-48-64.386718zm0 0" fill="#ffc473"/><path d="m177.140625 309.09375v36.269531c-13.902344 9.597657-30.757813 15.203125-48.917969 15.203125h-6.976562c-8.402344 0-16.523438-1.195312-24.203125-3.441406.640625-2.371094.96875-4.855469.96875-7.390625v-27.335937zm0 0" fill="#ffc473"/><path d="m214.535156 94.03125v153.425781c0 47.667969-38.640625 86.3125-86.3125 86.3125h-6.976562c-47.660156 0-86.304688-38.640625-86.304688-86.3125v-153.425781zm0 0" fill="#ffdba9"/><path d="m217.726562 230.4375h-3.195312v-57.292969h3.195312c15.820313 0 28.644532 12.828125 28.644532 28.644531 0 15.820313-12.824219 28.648438-28.644532 28.648438zm0 0" fill="#ffc473"/><path d="m80.691406 190.183594c0 4.929687-3.996094 8.925781-8.925781 8.925781s-8.921875-3.996094-8.921875-8.925781c0-4.929688 3.992188-8.925782 8.921875-8.925782s8.925781 3.996094 8.925781 8.925782zm0 0" fill="#57555c"/><path d="m152.097656 190.183594c0 4.929687-3.996094 8.925781-8.925781 8.925781s-8.925781-3.996094-8.925781-8.925781c0-4.929688 3.996094-8.925782 8.925781-8.925782s8.925781 3.996094 8.925781 8.925782zm0 0" fill="#57555c"/><path d="m105.339844 286.136719c-8.097656 0-14.550782-2.257813-17.675782-3.601563-3.921874-1.6875-5.730468-6.238281-4.042968-10.15625 1.6875-3.925781 6.238281-5.730468 10.160156-4.042968 3.144531 1.351562 11.46875 4.128906 20.820312.707031 7.148438-2.621094 11.410157-7.644531 13.316407-10.402344 2.421875-3.515625 7.238281-4.398437 10.753906-1.972656 3.511719 2.425781 4.394531 7.238281 1.96875 10.753906-2.945313 4.269531-9.554687 12.042969-20.722656 16.136719-5.167969 1.894531-10.121094 2.578125-14.578125 2.578125zm0 0" fill="#c06100"/><g fill="#00b7be"><path d="m88.9375 221.632812h-52.890625c-6.273437 0-11.378906-5.105468-11.378906-11.382812v-37.023438c0-6.277343 5.105469-11.378906 11.378906-11.378906h52.890625c6.273438 0 11.378906 5.101563 11.378906 11.378906v37.023438c0 6.277344-5.105468 11.382812-11.378906 11.382812zm-48.808594-15.460937h44.726563v-28.863281h-44.726563zm0 0"/><path d="m180.816406 221.632812h-56.417968c-6.273438 0-11.375-5.105468-11.375-11.382812v-37.023438c0-6.277343 5.101562-11.378906 11.375-11.378906h56.417968c6.273438 0 11.378906 5.101563 11.378906 11.378906v37.023438c0 6.277344-5.105468 11.382812-11.378906 11.382812zm-52.335937-15.460937h48.253906v-28.863281h-48.253906zm0 0"/><path d="m120.75 190.3125h-28.164062c-4.269532 0-7.730469-3.460938-7.730469-7.730469 0-4.273437 3.460937-7.730469 7.730469-7.730469h28.164062c4.269531 0 7.730469 3.457032 7.730469 7.730469 0 4.269531-3.460938 7.730469-7.730469 7.730469zm0 0"/><path d="m214.535156 161.84375v15.460938h-33.960937c-4.277344 0-7.730469-3.460938-7.730469-7.730469 0-4.265625 3.453125-7.730469 7.730469-7.730469zm0 0"/></g><path d="m223.222656 128.417969c.164063 11.453125-1.605468 22.46875-5.007812 32.734375-2.214844 6.691406-12.078125 5.195312-12.234375-1.855469 0-.328125-.011719-.65625-.019531-.988281-1.238282-33.652344-28.460938-61.089844-62.101563-62.554688-29.511719-1.289062-54.929687 17.109375-64.203125 43.167969-.125.316406-.226562.636719-.339844.957031-6.761718 19.046875-21.566406 34.292969-40.324218 41.652344-7.882813 3.101562-16.492188 4.792969-25.480469 4.792969-4.625 0-9.140625-.445313-13.511719-1.308594 11.359375-9.679687 19.925781-22.882813 23.417969-37.953125.679687-2.925781 1.164062-5.9375 1.445312-9-.226562-2.6875-.339843-5.421875-.339843-8.183594 0-1.917968.050781-3.832031.171874-5.71875v-.03125c.28125-4.78125.886719-9.472656 1.804688-14.050781 3.949219-19.550781 13.648438-37.03125 27.261719-50.585937 18.429687-18.359376 44.023437-29.519532 72.203125-28.941407 53.21875 1.09375 96.496094 44.640625 97.257812 97.867188zm0 0" fill="#57555c"/><path d="m84.757812 89.941406c-6.988281.988282-30.820312 5.804688-44.105468 26.59375-1.78125 2.792969-3.390625 6.53125-5.101563 10.492188-3.019531 7.039062-6.378906 14.851562-12.132812 20.035156.679687-2.925781 1.167969-5.9375 1.445312-8.996094-.226562-2.691406-.339843-5.421875-.339843-8.183594 0-1.917968.050781-3.835937.175781-5.722656v-.03125c.277343-4.78125.882812-9.472656 1.800781-14.046875.363281-.640625.734375-1.269531 1.125-1.878906 16.84375-26.355469 46.34375-32.351563 54.980469-33.570313 4.222656-.597656 8.132812 2.351563 8.730469 6.578126.59375 4.238281-2.351563 8.144531-6.578126 8.730468zm0 0" fill="#3c3b41"/><path d="m217.917969 381.371094-18.703125-5.574219v136.203125h59.097656c4.195312 0 7.605469-3.410156 7.605469-7.605469v-58.636719c0-29.714843-19.519531-55.902343-48-64.386718zm0 0" fill="#6d76e7"/><path d="m217.917969 381.371094-12.695313-3.785156-6.007812-1.785157v30.308594c22.617187 11.171875 37.402344 34.359375 37.402344 60.222656v45.667969h21.695312c1.046875 0 2.046875-.214844 2.957031-.597656 2.726563-1.15625 4.644531-3.863282 4.644531-7.007813v-58.640625c0-6.339844-.894531-12.519531-2.570312-18.402344-6.175781-21.679687-23.023438-39.308593-45.425781-45.980468zm0 0" fill="#4b5be5"/><path d="m73.675781 378.464844-9.753906 2.90625c-28.480469 8.484375-48.007813 34.671875-48.007813 64.386718v58.636719c0 4.195313 3.410157 7.601563 7.613282 7.601563h50.152344v-133.53125zm0 0" fill="#6d76e7"/><path d="m73.675781 431.125h125.539063v80.875h-125.539063zm0 0" fill="#e1b5ec"/></svg>