<?xml version="1.0" standalone="no"?>
<svg class="" width="1532px" height="1082px" viewBox="0 0 1532 1082" version="1.1" xmlns="http://www.w3.org/2000/svg" xmlns:xlink="http://www.w3.org/1999/xlink">
    <!-- Generator: Sketch 63.1 (92452) - https://sketch.com -->
    <title>relax</title>
    <desc>Created by Webpixels.</desc>
    <g id="Page-1" stroke="none" stroke-width="1" fill="none" fill-rule="evenodd">
        <g id="relax" transform="translate(0.000000, 1.000000)">
            <path d="M92.8,863.1 C92.8,863.1 55.4,820 33.3,766.2 C11.2,712.4 22.5,663.6 39.5,652.8 C56.5,642 96.8,698.2 99,748.6 C101.3,799.1 99,863.1 99,863.1 L92.8,863.1 L92.8,863.1 Z" id="Path" fill="#52CB96" fill-rule="nonzero"></path>
            <path d="M96.2,863.1 C96.2,863.1 62.2,659.6 78.6,565.5 C95,471.4 133,474.2 153.4,487.3 C173.8,500.4 197.1,566.7 167,682.9 C137,799.1 108,863.2 108,863.2 L96.2,863.2 L96.2,863.1 Z" id="Path" fill="#37B37F" fill-rule="nonzero"></path>
            <line x1="104.7" y1="863.1" x2="127.8" y2="589.4" id="Path" stroke="#FFFFFF" stroke-width="3" stroke-linecap="round" stroke-linejoin="round"></line>
            <line x1="96.2" y1="863.1" x2="60.5" y2="727.8" id="Path" stroke="#FFFFFF" stroke-width="3" stroke-linecap="round" stroke-linejoin="round"></line>
            <path d="M643.6,307.8 C643.6,307.8 682.7,211.2 817.7,246.9 C952.7,282.6 962.2,468.7 1026.6,524.2 C1091,579.6 1232.5,581 1223.4,713.5 C1214.3,846 1007.1,731.5 902.6,737.2 C584.8,754.5 515.6,914.6 303.1,824.3 C160.9,763.9 203,595.1 338.7,544.8 C474.4,494.5 579,456 643.6,307.8 Z" id="Path" fill="#F1F2F7" fill-rule="nonzero"></path>
            <ellipse id="Oval" fill="#283444" fill-rule="nonzero" cx="557.1" cy="933.1" rx="143.2" ry="61.8"></ellipse>
            <path d="M568.4,921.7 C568.4,921.7 564.7,926.2 554.8,926.2 C544.9,926.2 541.2,921.7 541.2,921.7 L541.2,794.7 L568.4,794.7 L568.4,921.7 Z" id="Path" fill="#CED5E5" fill-rule="nonzero"></path>
            <path d="M22.8,863.1 C8.8,880.3 0.4,902.2 0.4,926.1 C0.4,981.1 45,1025.8 100.1,1025.8 C155.2,1025.8 199.8,981.2 199.8,926.1 C199.8,902.2 191.4,880.3 177.4,863.1 L22.8,863.1 Z" id="Path" fill="#CED5E5" fill-rule="nonzero"></path>
            <path d="M908.3,827.6 L908.3,1034.2 C908.3,1059.7 971.9,1080.3 1050.3,1080.3 C1128.7,1080.3 1192.3,1059.7 1192.3,1034.2 L1192.3,827.6 L908.3,827.6 Z" id="Path" fill="#FFB3DA" fill-rule="nonzero"></path>
            <ellipse id="Oval" fill="#ED85C3" fill-rule="nonzero" cx="1050.3" cy="827.6" rx="142" ry="67.2"></ellipse>
            <path d="M267.1,513.8 C267.1,513.8 264.5,463.6 306.2,447.5 C347.9,431.3 461.8,421.1 528.2,440.7 C594.5,460.3 513.6,498.7 633.6,612.5 C743,716.2 802,683.9 866.6,715.4 C931.2,746.9 802,838.7 674.4,836.2 C546.8,833.7 476.3,808.1 413.3,765.6 C350.5,723 262.9,615.9 267.1,513.8 Z" id="Path" fill="#283444" fill-rule="nonzero"></path>
            <path d="M525.8,746.2 C525.8,746.2 547.6,768.7 592.8,780.3 C638.7,792.1 705.9,800.2 767.4,808.6 C888.3,825.3 1073,851.7 1073,851.7 L1070.2,819.4 C1070.2,819.4 777.2,767.5 639.5,714.5 L569,681.1 C569,681.1 542.7,688.3 525.8,746.2 Z" id="Path" fill="#5900CC" fill-rule="nonzero"></path>
            <path d="M665.2,658.5 L1066.2,834.4 L1054.1,868 L643.8,716.2 L577.4,694.6 L584.6,675.4 C584.7,675.4 638.3,646.7 665.2,658.5 Z" id="Path" fill="#5900CC" fill-rule="nonzero"></path>
            <path d="M401.3,448.4 L392.1,505.4 C392.1,505.4 420.4,513.9 433.9,507 C447.4,500.1 452.8,484.6 452.8,484.6 C452.8,484.6 442.5,483.2 429.6,453.3 L401.3,448.4 Z" id="Path" fill="#FFDFD7" fill-rule="nonzero"></path>
            <polyline id="Path" stroke="#CED5E5" stroke-width="3" opacity="0.3" stroke-linecap="round" stroke-linejoin="round" points="1524.1 941.8 337.8 252.7 337.8 179.9 1404.2 29.1"></polyline>
            <path d="M387.3,441.5 C387.3,441.5 417.6,460.5 442.9,452.8 C468.1,445.1 434.3,343.7 434.3,343.7 C434.3,343.7 420.3,321.1 384.8,329.6 C349.2,338.1 344.5,404 387.3,441.5 Z" id="Path" fill="#FFDFD7" fill-rule="nonzero"></path>
            <path d="M394.7,489.7 C394.7,489.7 377.1,500.2 360.1,519 C351.4,528.6 389.4,593.4 433.6,649.7 C475.7,703.4 523.9,748.8 523.9,748.8 C523.9,748.8 554.9,704.2 593.4,684.9 C632,665.6 667.9,657.7 667.9,657.7 C667.9,657.7 577.2,579.5 526.9,532.2 L493.3,478.9 C493.3,478.9 472.9,476.6 446.1,480 C446,480.2 431.4,497.3 394.7,489.7 Z" id="Path" fill="#FFC933" fill-rule="nonzero"></path>
            <path d="M473.4,597.9 C473.4,597.9 491.5,589.8 509.6,587.3 C527.7,584.7 521.9,607.7 515.8,616.4 C509.7,625.1 467.1,628.7 467.1,628.7 C467.1,628.7 458.2,623.4 460.8,615.4 C463.4,607.4 466.5,601.5 473.4,597.9 Z" id="Path" fill="#FFDFD7" fill-rule="nonzero"></path>
            <path d="M493.2,479.1 C493.2,479.1 528.7,481.1 582.3,509.8 L598.3,520.3 C598.3,520.3 631.9,541.7 637.3,554.5 C642.7,567.3 637,579.7 630.9,585.4 L597.9,556.6 L528,534.1 L493.2,479.1 Z" id="Path" fill="#FFC933" fill-rule="nonzero"></path>
            <path d="M360,519 C354.3,527.1 348.7,537.3 343.9,550.1 C324.6,601.1 324.6,643.1 328.4,647.2 C332.2,651.4 380.6,653.2 467.5,629.1 C467.5,629.1 459.9,620.4 473.9,597 C473.9,597 419.1,603.8 379.8,606.4 L389.2,572.4 C389.2,572.4 393.4,542.5 376.3,528.9 L360,519 Z" id="Path" fill="#FFC933" fill-rule="nonzero"></path>
            <line x1="547" y1="550.9" x2="515.8" y2="522.4" id="Path" stroke="#FEAC00" stroke-width="3" stroke-linecap="round" stroke-linejoin="round"></line>
            <path d="M491.9,654.7 L504.7,573.6 C505.2,570.3 507.4,567.5 510.5,566.2 L614.1,522.7 C615.9,521.9 619.5,522.5 622.2,524.8 C623.2,525.7 620.6,526 620.4,527.5 L609.2,599.5 C608.7,602.6 606.8,605.2 604,606.6 L501.9,661.4 C498.4,663.2 491,659.7 491.9,654.7 Z" id="Path" fill="#CED5E5" fill-rule="nonzero"></path>
            <path d="M495.8,656.5 L508.6,575.4 C509.1,572.1 511.3,569.3 514.4,568 L618,524.5 C621.3,523.1 624.8,525.9 624.2,529.4 L613,601.4 C612.5,604.5 610.6,607.1 607.8,608.5 L502.3,661.2 C499,662.9 495.3,660.1 495.8,656.5 Z" id="Path" fill="#F1F2F7" fill-rule="nonzero"></path>
            <ellipse id="Oval" fill="#CED5E5" fill-rule="nonzero" transform="translate(568.993700, 588.442950) rotate(-67.610204) translate(-568.993700, -588.442950) " cx="568.9937" cy="588.44295" rx="13.5997958" ry="9.49985736"></ellipse>
            <path d="M624.3,558.8 C624.3,558.8 602.1,564.8 597.1,567.5 C592.2,570.1 584.6,572.4 584.6,580 C584.6,587.6 591.4,597.8 597.5,598.5 C603.5,599.3 625.7,592.2 630.9,585.3 C636.1,578.4 635.4,557.3 624.3,558.8 Z" id="Path" fill="#FFDFD7" fill-rule="nonzero"></path>
            <path d="M435.2,346.6 C435.2,346.6 441.7,335.2 428.7,327.7 C415.7,320.2 374.5,311.1 356.7,352.5 C356.7,352.5 340,356.2 345.4,387.4 C350.8,418.6 387.4,441.5 387.4,441.5 L383.8,404.5 L392,399.4 L382.3,373.1 C382.2,373.2 421.8,371.2 435.2,346.6 Z" id="Path" fill="#8B34FF" fill-rule="nonzero"></path>
            <path d="M385.3,409.5 C385.3,409.5 384.4,401 376.4,397.9 C368.4,394.8 361.4,401.9 363.1,411.5 C364.8,421.2 378,430.2 389.6,424.7 L385.3,409.5 Z" id="Path" fill="#FFDFD7" fill-rule="nonzero"></path>
            <polyline id="Path" stroke="#FEAC00" stroke-width="3" stroke-linecap="round" stroke-linejoin="round" points="474 597 379.8 606.4 389.3 572.4"></polyline>
            <line x1="467.5" y1="629.1" x2="426.9" y2="638.7" id="Path" stroke="#FEAC00" stroke-width="3" stroke-linecap="round" stroke-linejoin="round"></line>
            <path d="M1070.2,819.4 C1070.2,819.4 1072.1,796.5 1081.9,779.1 C1091.7,761.7 1105.5,759.1 1105.5,759.1 L1104.7,851.7 L1073,851.7 L1070.2,819.4 Z" id="Path" fill="#FFFFFF" fill-rule="nonzero"></path>
            <path d="M1065.5,836.4 C1065.5,836.4 1077.7,815.2 1094.9,802.8 C1112.1,790.4 1126.3,794 1126.3,794 L1083.5,883 L1053.5,868.9 L1065.5,836.4 Z" id="Path" fill="#FFFFFF" fill-rule="nonzero"></path>
            <polyline id="Path" stroke="#8B34FF" stroke-width="3" stroke-linecap="round" stroke-linejoin="round" points="667.8 725.1 1053.5 868.8 1066.2 834.3 1003.5 806.8"></polyline>
            <path d="M1070.9,828.1 C1070.9,828.1 1087.5,802.1 1105.5,796.7" id="Path" stroke="#F1F2F7" stroke-width="3" stroke-linecap="round" stroke-linejoin="round"></path>
            <path d="M258.6,273.1 L38.1,273.1 C22.8,273.1 10.5,260.7 10.5,245.5 L10.5,187.1 C10.5,171.8 22.9,159.5 38.1,159.5 L258.6,159.5 C273.9,159.5 286.2,171.9 286.2,187.1 L286.2,245.5 C286.2,260.8 273.9,273.1 258.6,273.1 Z" id="Path" stroke="#FEAC00" fill="#FFB3DA" fill-rule="nonzero"></path>
            <rect id="Rectangle" stroke="#FEAC00" fill="#FFB3DA" fill-rule="nonzero" x="126.7" y="0.2" width="13.6" height="159.3"></rect>
            <path d="M339,256.2 L332.7,256.2 C310.6,256.2 292.8,238.3 292.8,216.3 L292.8,216.3 C292.8,194.2 310.7,176.4 332.7,176.4 L339,176.4 L339,256.2 Z" id="Path" fill="#ED85C3" fill-rule="nonzero"></path>
            <path d="M1524.1,941.8 L1406,788.8 C1402.8,784.7 1401.1,779.6 1401.1,774.4 L1401.1,34.4 C1401.1,30.4 1404.9,27.5 1408.8,28.6 L1521.6,61.1 C1527.3,62.7 1531.2,67.9 1531.2,73.8 L1531.2,939.4 C1531.1,943.1 1526.4,944.7 1524.1,941.8 Z" id="Path" fill="#F1F2F7" fill-rule="nonzero"></path>
            <rect id="Rectangle" fill="#ED85C3" fill-rule="nonzero" x="100.1" y="0.2" width="67.3" height="20"></rect>
        </g>
    </g>
</svg>