<?xml version="1.0" standalone="no"?>
<svg class="" width="1238px" height="1035px" viewBox="0 0 1238 1035" version="1.1" xmlns="http://www.w3.org/2000/svg" xmlns:xlink="http://www.w3.org/1999/xlink">
    <!-- Generator: Sketch 60 (88103) - https://sketch.com -->
    <title>Inspiration</title>
    <desc>Created by Webpixels.</desc>
    <g id="Page-1" stroke="none" stroke-width="1" fill="none" fill-rule="evenodd">
        <g id="inspiration">
            <path d="M5.5,775.2 C5.5,775.2 -27.3,633.8 74.8,544.3 C176.9,454.8 241.8,448.6 353.7,421.8 C510.2,384.4 475,237 577.1,149.7 C679.2,62.4 775.5,60.5 826.5,138.4 C869.6,204.2 816.9,272.9 826.5,392.4 C833.3,477.2 960.3,464.9 979.6,594.2 C998.9,723.5 960.3,791.5 868.5,808.5 C776.7,825.5 647.3,822.1 489.7,879.9 C421.4,905 371.4,946.3 287.3,952.5 C177.5,960.7 44.7,943.4 5.5,775.2 Z" fill="#603E87" fill-rule="nonzero"></path>
            <path d="M119.3,566.9 C119.3,566.9 110.5,558.7 125.3,556.4 C140.1,554.1 222.8,554.4 248,556.4 C273.2,558.4 281.2,575.6 281.2,575.6 C281.2,575.6 274.1,589.9 257.7,593 C241.3,596.1 233,591.8 233,591.8 C233,591.8 140.5,574.9 119.3,566.9 Z" fill="#FFDFD7" fill-rule="nonzero"></path>
            <path d="M601.6,529.5 L626.5,473.2 L672.6,467.2 L713.4,529.6 C713.4,529.6 686.9,578.7 642.7,575.7 C598.6,572.6 601.6,529.5 601.6,529.5 Z" fill="#FFDFD7" fill-rule="nonzero"></path>
            <path d="M597.5,322.3 C597.5,322.3 583.9,415.8 583.9,441.9 C583.9,468 625.6,481.3 655.3,475.9 C685,470.5 714.8,417.8 714.8,417.8 C714.8,417.8 733.5,373.6 734.9,330.2 C736.3,286.8 679.7,277.8 666,278.6 C650.9,279.6 607.1,286 597.5,322.3 Z" fill="#FFDFD7" fill-rule="nonzero"></path>
            <path d="M597.2,324.5 C597.2,324.5 579.7,309.2 583.9,286.5 C588.1,263.8 615.6,244.5 646.3,255.5 C676.9,266.5 679.8,274.8 679.8,274.8 C679.8,274.8 691.7,260.8 706.4,265 C721.1,269.2 749.5,292.4 748,334.9 C745.8,395.8 708.5,434.3 692.3,449.8 L721.5,381.2 C721.5,381.2 713.8,368.6 698.5,374.8 C698.5,374.8 694,387.3 692.3,393.1 L681.2,391.8 C681.2,391.8 686.4,349.3 683.3,326.6 C683.1,326.6 638.8,333.7 597.2,324.5 Z" fill="#80B2F2" fill-rule="nonzero"></path>
            <path d="M603.4,525.5 L647.9,554.2 L653.3,575.4 L657.5,556.8 L703.9,514.9 L771.2,565.4 L808.9,620.2 C808.9,620.2 768.1,769.3 701.2,780.6 C634.3,791.9 560.6,722.8 547,678.6 C533.4,634.4 560.7,553.3 560.7,553.3 L603.4,525.5 Z" fill="#FFFFFF" fill-rule="nonzero"></path>
            <path d="M224.7,599.5 C224.7,599.5 246,573.2 284.2,575.7 L375.2,733.8 C375.2,733.8 480.6,605.4 559.7,551.8 L659.4,700.6 L773.2,562.8 C773.2,562.8 854,635.9 873.5,669.1 C893.1,702.3 861.6,1033.1 861.6,1033.1 L526.6,1033.1 L502,746.9 L395.7,824.3 C395.7,824.3 359.1,847.8 332.8,802.8 C306.4,757.7 224.7,599.5 224.7,599.5 Z" fill="#4994EC" fill-rule="nonzero"></path>
            <polygon fill="#FFFFFF" fill-rule="nonzero" points="591.4 517.8 568.3 544.3 622.7 609.2 647.9 554.2"></polygon>
            <polygon fill="#FFFFFF" fill-rule="nonzero" points="710.6 508.8 657.6 556.7 696.7 609.2 736.4 534.9"></polygon>
            <polyline stroke="#78B3F2" stroke-width="3" opacity="0.34" stroke-linecap="round" stroke-linejoin="round" points="647.9 554.2 622.7 609.2 568.3 544.3"></polyline>
            <polyline stroke="#78B3F2" stroke-width="3" opacity="0.34" stroke-linecap="round" stroke-linejoin="round" points="657.6 556.7 696.7 609.2 736.4 534.9"></polyline>
            <path d="M254,367.5 C254,331.3 224.4,302 188,302.6 C153.3,303.1 124.9,331.4 124.1,366.1 C123.7,385.2 131.6,402.5 144.4,414.6 C147.8,417.8 150.9,421.2 153.7,424.8 L153.7,424.8 C166.4,441.2 173.3,461.4 173.3,482.2 L173.3,492.3 L189,492.3 L204.7,492.3 L204.7,482.2 C204.7,461.4 211.6,441.2 224.3,424.8 L224.3,424.8 C227.2,421.1 230.3,417.7 233.7,414.5 C246.3,402.7 254,386 254,367.5 Z" fill="#FFBB23" fill-rule="nonzero"></path>
            <path d="M196.2,527.3 L182,527.3 C175.5,527.3 170.2,522 170.2,515.5 L170.2,490 C170.2,488.5 171.4,487.4 172.8,487.4 L205.3,487.4 C206.8,487.4 207.9,488.6 207.9,490 L207.9,515.5 C208,522 202.7,527.3 196.2,527.3 Z" fill="#FFFFFF" fill-rule="nonzero"></path>
            <path d="M208.9,498.7 L168.4,498.7 C166.9,498.7 165.7,497.5 165.7,496 L165.7,496 C165.7,494.5 166.9,493.3 168.4,493.3 L208.9,493.3 C210.4,493.3 211.6,494.5 211.6,496 L211.6,496 C211.6,497.5 210.4,498.7 208.9,498.7 Z" fill="#78B3F2" fill-rule="nonzero"></path>
            <path d="M208.9,509.7 L168.4,509.7 C166.9,509.7 165.7,508.5 165.7,507 L165.7,507 C165.7,505.5 166.9,504.3 168.4,504.3 L208.9,504.3 C210.4,504.3 211.6,505.5 211.6,507 L211.6,507 C211.6,508.5 210.4,509.7 208.9,509.7 Z" fill="#78B3F2" fill-rule="nonzero"></path>
            <path d="M208.9,520.8 L168.4,520.8 C166.9,520.8 165.7,519.6 165.7,518.1 L165.7,518.1 C165.7,516.6 166.9,515.4 168.4,515.4 L208.9,515.4 C210.4,515.4 211.6,516.6 211.6,518.1 L211.6,518.1 C211.6,519.6 210.4,520.8 208.9,520.8 Z" fill="#78B3F2" fill-rule="nonzero"></path>
            <rect id="Rectangle" fill="#FFFFFF" fill-rule="nonzero" x="181.6" y="391.2" width="4" height="97.7"></rect>
            <rect id="Rectangle" fill="#FFFFFF" fill-rule="nonzero" x="191.2" y="391.2" width="4" height="97.7"></rect>
            <circle id="Oval" fill="#FFFFFF" fill-rule="nonzero" cx="178.4" cy="391.2" r="7.1"></circle>
            <circle id="Oval" fill="#FFFFFF" fill-rule="nonzero" cx="198.3" cy="391.2" r="7.1"></circle>
            <line x1="189.1" y1="281.8" x2="189.1" y2="242" stroke="#FFBB23" stroke-width="6" stroke-linecap="round" stroke-linejoin="round"></line>
            <line x1="126.2" y1="307.8" x2="98.1" y2="279.7" stroke="#FFBB23" stroke-width="6" stroke-linecap="round" stroke-linejoin="round"></line>
            <line x1="100.2" y1="370.7" x2="60.4" y2="370.7" stroke="#FFBB23" stroke-width="6" stroke-linecap="round" stroke-linejoin="round"></line>
            <line x1="126.2" y1="433.6" x2="98.1" y2="461.7" stroke="#FFBB23" stroke-width="6" stroke-linecap="round" stroke-linejoin="round"></line>
            <line x1="252" y1="433.6" x2="280.1" y2="461.7" stroke="#FFBB23" stroke-width="6" stroke-linecap="round" stroke-linejoin="round"></line>
            <line x1="278" y1="370.7" x2="317.8" y2="370.7" stroke="#FFBB23" stroke-width="6" stroke-linecap="round" stroke-linejoin="round"></line>
            <line x1="252" y1="307.8" x2="280.1" y2="279.7" stroke="#FFBB23" stroke-width="6" stroke-linecap="round" stroke-linejoin="round"></line>
            <line x1="791.9" y1="731.4" x2="795.9" y2="1033.2" stroke="#2776C4" stroke-width="3" stroke-linecap="round" stroke-linejoin="round"></line>
            <circle id="Oval" fill="#80B2F2" fill-rule="nonzero" cx="220.1" cy="169.6" r="14.8"></circle>
            <circle id="Oval" fill="#80B2F2" fill-rule="nonzero" cx="377.6" cy="224.3" r="10.8"></circle>
            <circle id="Oval" fill="#80B2F2" fill-rule="nonzero" cx="17.8" cy="491.8" r="17.3"></circle>
            <circle id="Oval" fill="#80B2F2" fill-rule="nonzero" cx="425" cy="505.2" r="11.9"></circle>
            <circle id="Oval" fill="#80B2F2" fill-rule="nonzero" cx="846" cy="513.4" r="8.1"></circle>
            <circle id="Oval" fill="#80B2F2" fill-rule="nonzero" cx="903.6" cy="347" r="15.6"></circle>
            <circle id="Oval" fill="#80B2F2" fill-rule="nonzero" cx="929.7" cy="118.7" r="10.5"></circle>
            <circle id="Oval" fill="#80B2F2" fill-rule="nonzero" cx="677.3" cy="19.7" r="19.7"></circle>
            <path d="M692.199905,393.1 C692.199905,393.1 693.8,369 700.8,364.3 C707.9,359.6 713,360 719.7,363.2 C726.4,366.3 739,383.8 715.4,410.5 C691.9,437.3 692.199905,393.1 692.199905,393.1 Z" fill="#FFDFD7" fill-rule="nonzero"></path>
            <g transform="translate(1061.000000, 93.000000)" fill="#FFBB23" fill-rule="nonzero">
                <circle id="Oval" cx="95.4" cy="81.1" r="81.1"></circle>
                <polygon points="0.3 162.1 113.6 123.6 58 57.3"></polygon>
            </g>
            <g transform="translate(1073.000000, 314.000000)" fill="#FFBB23" fill-rule="nonzero">
                <rect id="Rectangle" transform="translate(76.433340, 53.106920) rotate(-27.651534) translate(-76.433340, -53.106920) " x="20.8324935" y="45.6068058" width="111.201693" height="15.0002284"></rect>
                <rect id="Rectangle" transform="translate(76.379400, 106.743350) rotate(-60.599799) translate(-76.379400, -106.743350) " x="68.8795041" y="50.2441339" width="14.9997919" height="112.998432"></rect>
                <circle id="Oval" cx="125.6" cy="134.5" r="26.8"></circle>
                <circle id="Oval" cx="125.6" cy="27.4" r="26.8"></circle>
                <circle id="Oval" cx="27.1" cy="79" r="26.8"></circle>
            </g>
            <g transform="translate(1080.000000, 552.000000)" fill="#FFBB23" fill-rule="nonzero">
                <path d="M138.4,187.8 L0.3,187.8 L0.3,158.9 C0.3,120.8 31.2,89.8 69.4,89.8 L69.4,89.8 C107.5,89.8 138.5,120.7 138.5,158.9 L138.5,187.8 L138.4,187.8 Z" id="Path"></path>
                <circle id="Oval" cx="69.4" cy="37.2" r="36.9"></circle>
            </g>
            <path d="M1149.4,811 C1104.6,811 1068.3,847.3 1068.3,892.1 C1068.3,936.9 1104.6,973.2 1149.4,973.2 C1194.2,973.2 1230.5,936.9 1230.5,892.1 C1230.4,847.3 1194.1,811 1149.4,811 Z M1126,930.5 L1126,853.6 L1192.6,892 L1126,930.5 Z" id="Shape" fill="#FFBB23" fill-rule="nonzero"></path>
        </g>
    </g>
</svg>