<?xml version="1.0" encoding="iso-8859-1"?>
<!-- Generator: Adobe Illustrator 19.0.0, SVG Export Plug-In . SVG Version: 6.00 Build 0)  -->
<svg version="1.1" id="Layer_1" xmlns="http://www.w3.org/2000/svg" xmlns:xlink="http://www.w3.org/1999/xlink" x="0px" y="0px"
	 viewBox="0 0 511.999 511.999" style="enable-background:new 0 0 511.999 511.999;" xml:space="preserve">
<g>
	<g>
		<path d="M466.134,212.817l31.015-31.015c19.775-19.773,19.779-51.782,0-71.559l-95.411-95.411
			c-19.773-19.775-51.782-19.778-71.559,0L105.557,239.456c-12.418,12.418-17.474,30.047-13.525,47.156l11.584,50.196
			l-53.015,53.015c-0.003,0.003-0.006,0.005-0.008,0.007c-0.002,0.002-0.004,0.005-0.007,0.007l-35.773,35.773
			c-19.729,19.728-19.729,51.829,0,71.558c19.773,19.775,51.781,19.779,71.558,0l35.773-35.771c0.002-0.002,0.005-0.005,0.007-0.007
			c0.002-0.002,0.005-0.005,0.007-0.007l53.015-53.015l50.196,11.584c17.109,3.949,34.739-1.108,47.156-13.525l76.736-76.736
			c3.099,4.669,6.682,9.064,10.736,13.117c32.883,32.883,86.382,32.882,119.264,0c32.881-32.879,32.881-86.381,0-119.263
			C475.176,219.46,470.774,215.887,466.134,212.817z M62.521,473.314c0,0,0,0-0.001,0c-6.59,6.593-17.259,6.593-23.851,0
			s-6.593-17.26,0-23.853l23.853-23.853l23.852,23.853L62.521,473.314z M110.225,425.609l-23.853-23.853l35.779-35.78l23.854,23.854
			L110.225,425.609z M336.142,295.105l-87.468,87.468c-4.14,4.14-10.019,5.828-15.718,4.508l-54.591-12.597l-40.865-40.865
			l-12.598-54.591c-1.316-5.704,0.37-11.581,4.508-15.719L354.034,38.684c6.593-6.593,17.261-6.593,23.854,0l95.411,95.411
			c6.577,6.577,6.577,17.277,0,23.854l-41.775,41.775c-25.365-3.584-52.059,4.354-71.526,23.82
			C340.513,243.027,332.536,269.489,336.142,295.105z M455.409,318.953c-19.73,19.728-51.832,19.728-71.56,0
			c-19.774-19.774-19.776-51.78,0-71.559c19.733-19.73,51.831-19.727,71.56,0C475.137,267.124,475.137,299.225,455.409,318.953z"/>
	</g>
</g>
<g>
	<g>
		<path d="M359.998,104.28c-6.586-6.588-17.266-6.586-23.853,0L181.785,258.639c-6.587,6.586-6.587,17.266,0,23.853
			c6.583,6.587,17.264,6.588,23.851,0l154.362-154.359C366.585,121.546,366.585,110.867,359.998,104.28z"/>
	</g>
</g>
<g>
</g>
<g>
</g>
<g>
</g>
<g>
</g>
<g>
</g>
<g>
</g>
<g>
</g>
<g>
</g>
<g>
</g>
<g>
</g>
<g>
</g>
<g>
</g>
<g>
</g>
<g>
</g>
<g>
</g>
</svg>
