<svg id="Capa_1" enable-background="new 0 0 512 512" height="512" viewBox="0 0 512 512" width="512" xmlns="http://www.w3.org/2000/svg"><g id="Outline_1_"><path d="m127.613 44.586c1.567-4.131-.512-8.75-4.643-10.317l-.889-.34c-4.122-1.592-8.753.459-10.345 4.581-3.854 9.978 12.07 16.115 15.877 6.076z"/><path d="m267.163 232.989c36.189-164.349 35.158-156.546 35.158-161.427-.055-13.255-10.845-23.955-24.1-23.899-2.87.012-5.715.539-8.4 1.555-33.835 12.623-81.052 3.544-117.151-5.7-4.28-1.096-8.638 1.485-9.734 5.766s1.485 8.638 5.766 9.734c97.1 24.862 121.873 4.647 129.623 4.647 4.418.011 7.991 3.602 7.98 8.02-.001.574-.065 1.145-.188 1.705l-34.575 156.14c-12.712 57.407-121.489 79.281-141.239 82.79-15.346-10.762-94.303-68.817-94.303-123.371 0-10.3-.583-1.189 35.792-167.445.959-4.313 5.232-7.032 9.545-6.074 1.539.342 2.942 1.131 4.034 2.268 6.289 6.281 13.293 11.802 20.869 16.451 3.729 2.37 8.673 1.269 11.043-2.46s1.269-8.673-2.46-11.043c-.039-.025-.078-.049-.117-.073-6.509-3.985-12.529-8.718-17.936-14.104-13.358-13.561-36.47-7.07-40.6 11.58-35.821 164.284-36.17 157.613-36.17 170.9 0 68.694 99.767 135.652 104.014 138.468 1.653 1.096 3.654 1.539 5.615 1.243 5.76-.87 141.25-22.135 157.534-95.671z"/><path d="m92.754 180.382c-4.571 2.915-3.376 7.113-6.969 20.638-5.819 25.863 10.431 51.546 36.294 57.365s51.546-10.431 57.365-36.294c.024-.105.047-.211.07-.316l3.46-15.622c.955-4.314-1.767-8.585-6.081-9.54-81.493-17.193-79.131-19.426-84.139-16.231zm8.653 24.1 1.729-7.811 62.487 13.837-1.73 7.811c-3.769 17.267-20.822 28.208-38.088 24.439s-28.208-20.822-24.439-38.088c.013-.062.027-.125.041-.188z"/><path d="m254.038 142.873c1.661-3.104 1.099-6.928-1.386-9.422-.834-.837-20.658-20.458-42.478-17.24s-35.156 27.7-35.714 28.743c-1.661 3.104-1.098 6.929 1.387 9.422.77.773 17.775 17.594 37.576 17.594 17.665 0 33.157-15.161 40.615-29.097zm-62.024 4.313c13.237-17.98 26.587-19.971 44.47-6.543-13.24 17.979-26.584 19.967-44.47 6.543z"/><path d="m56.877 90.039c-3.402 1.193-5.585 4.514-5.332 8.11.082 1.185 2.242 29.184 21.052 41.559 13.07 8.6 32.823 7.67 46.5 2.88 3.4-1.193 5.583-4.512 5.332-8.106-.082-1.185-2.241-29.183-21.052-41.558s-45.377-3.275-46.5-2.885zm50.579 39.08c-22.414 4.345-34.09-3.5-38.938-25.615 22.202-4.294 34.039 3.278 38.938 25.615z"/><path d="m359.1 227.749c-21.009 6.244-49.516 13.04-72.685 14.7-4.407.312-7.727 4.138-7.415 8.545.297 4.187 3.78 7.433 7.978 7.435 16.8 0 55.347-9 76.679-15.341 4.236-1.258 6.649-5.712 5.391-9.948-1.258-4.235-5.712-6.649-9.948-5.391z"/><path d="m471.151 200.187c-4.61-18.425-27.858-24.441-40.891-10.465-4.398 4.647-9.256 8.835-14.5 12.5-3.637 2.509-4.551 7.491-2.042 11.128s7.491 4.551 11.128 2.042c.053-.037.106-.074.158-.112 17.405-12.32 16.491-17.255 22.833-17.255 3.687-.047 6.918 2.458 7.79 6.041 40.651 164.692 40.373 156.261 40.373 167.949 0 54.148-76.028 113.3-90.922 124.36-19.841-2.971-129.172-21.867-143.444-78.907l-26.37-105.4c-1.072-4.286-5.416-6.892-9.702-5.82s-6.892 5.416-5.82 9.703l26.37 105.4c18.283 73.067 154.3 90.627 160.083 91.338 1.969.241 3.957-.258 5.579-1.4 4.09-2.873 100.226-71.252 100.226-139.274 0-15.066-.908-9.384-40.849-171.828z"/><path d="m399.747 221.02c-1.78-4.044-6.5-5.879-10.544-4.1l-.87.38c-4.054 1.755-5.919 6.463-4.165 10.518 4.254 9.831 19.896 3.015 15.579-6.798z"/><path d="m355.577 441.449c.119-.174 12.163-17.455 30.255-21.982s36.855 5.045 37.023 5.132c3.917 2.051 8.755.538 10.806-3.379.909-1.735 1.149-3.744.677-5.645-8.5-33.989-30.994-49.98-60.158-42.759-25.67 5.5-42.274 28.886-32.971 66.064 1.091 4.289 5.452 6.883 9.742 5.792 1.881-.478 3.525-1.623 4.626-3.223zm22.465-53.107c18.293-4.516 28.968 4.213 35.2 16.006-22.429-5.341-41.433-.584-58.7 14.69-.068-13.341 5.238-26.068 23.5-30.7z"/><path d="m457.974 280.563c.1-3.519-2.112-6.689-5.449-7.81-1.118-.374-27.621-9.063-45.7 3.554s-19.078 40.488-19.111 41.669c-.1 3.519 2.112 6.689 5.449 7.81 13.7 4.593 33.156 5.2 45.7-3.554 18.084-12.616 19.078-40.483 19.111-41.669zm-53.564 31.567c3.81-21.985 14.844-29.739 36.838-25.725-4.11 18.191-14.674 29.782-36.838 25.725z"/><path d="m257.979 321.375c-2.509 2.586-2.979 6.53-1.149 9.634.6 1.023 15.043 25.107 37.4 27.775 15.531 1.859 32.8-7.807 42.887-18.194 2.509-2.586 2.98-6.531 1.149-9.635-.6-1.023-15.043-25.107-37.4-27.775s-42.059 17.34-42.887 18.195zm62.692 12.347c-17.677 13.653-31.731 12.507-46.262-5.5 18.026-13.829 31.982-12.181 46.262 5.5z"/><path d="m331.226 161.587-3.916 21.744c-.778 4.352 2.12 8.511 6.472 9.288 1.695.303 3.442.051 4.982-.717l20.986-10.506 20.986 10.506c3.959 1.972 8.767.36 10.738-3.598.766-1.538 1.017-3.281.716-4.973l-3.916-21.744 16.668-15.473c3.236-3.013 3.417-8.079.404-11.315-1.252-1.345-2.929-2.218-4.749-2.473l-23.366-3.233-10.378-20.025c-2.04-3.923-6.874-5.449-10.797-3.409-1.46.759-2.65 1.95-3.409 3.409l-10.378 20.025-23.369 3.233c-4.379.613-7.431 4.66-6.818 9.039.255 1.82 1.128 3.497 2.473 4.749zm23.344-21.456 5.18-10 5.18 10c2.942 5.677 9.118 4.049 16.764 5.732l-7.511 6.973c-2 1.854-.572 17.607-.572 17.607-7.906-3.266-11.854-7.945-17.442-5.146l-10.28 5.146s1.426-15.753-.572-17.607l-7.511-6.973c7.594-1.671 13.818-.047 16.764-5.732z"/><path d="m391.2 97.962 35.648-.642 20.42 28.981c2.553 3.611 7.55 4.468 11.161 1.914 1.424-1.007 2.48-2.452 3.008-4.114l10.786-34.184 34.185-10.788c4.215-1.337 6.547-5.838 5.21-10.052-.528-1.664-1.585-3.109-3.01-4.117l-28.981-20.419.642-35.648c.07-4.421-3.456-8.062-7.877-8.133-1.769-.028-3.498.53-4.916 1.589l-28.738 21.507-33.738-11.283c-4.196-1.394-8.728.878-10.121 5.075-.544 1.639-.544 3.411.001 5.05l11.284 33.734-21.512 28.737c-2.648 3.537-1.927 8.551 1.61 11.199 1.423 1.065 3.161 1.626 4.938 1.594zm31.467-42.631-7.525-22.495 22.5 7.524c2.489.833 26.338-15.41 26.338-15.41s.8 28.7 2.967 30.228l19.24 13.555-22.745 7.178c-2.488.785-12.4 27.966-12.4 27.966l-15.042-22.628-28.743.424s16.243-23.852 15.41-26.342z"/><path d="m88 448.749c-4.418 0-8 3.582-8 8v48c0 4.418 3.582 8 8 8s8-3.582 8-8v-48c0-4.418-3.582-8-8-8z"/><path d="m88 336.749c-4.418 0-8 3.582-8 8v48c0 4.418 3.582 8 8 8s8-3.582 8-8v-48c0-4.418-3.582-8-8-8z"/><circle cx="88" cy="424.749" r="8"/><path d="m168 416.749h-48c-4.418 0-8 3.582-8 8s3.582 8 8 8h48c4.418 0 8-3.582 8-8s-3.582-8-8-8z"/><path d="m130.343 371.092-16 16c-3.119 3.136-3.106 8.207.03 11.326 1.495 1.488 3.517 2.325 5.627 2.331 5.675 0 7.01-4.642 21.657-18.343 3.124-3.124 3.124-8.19 0-11.314s-8.19-3.124-11.314 0z"/><path d="m54 400.749c4.423-.012 7.999-3.607 7.988-8.03-.006-2.109-.843-4.131-2.331-5.627l-16-16c-3.124-3.124-8.19-3.124-11.314 0s-3.124 8.19 0 11.314l16 16c1.499 1.503 3.535 2.346 5.657 2.343z"/><path d="m125.657 451.092c-3.124-3.124-8.19-3.124-11.314 0s-3.124 8.19 0 11.314c15.124 14.143 16.022 18.343 21.657 18.343 4.423-.012 7.999-3.607 7.988-8.03-.006-2.109-.843-4.131-2.331-5.627z"/><path d="m48.343 451.092-16 16c-3.119 3.136-3.106 8.207.03 11.326 1.495 1.488 3.517 2.325 5.627 2.331 5.675 0 7.01-4.642 21.657-18.343 3.124-3.124 3.124-8.19 0-11.314s-8.19-3.124-11.314 0z"/><path d="m56 416.749h-48c-4.418 0-8 3.582-8 8s3.582 8 8 8h48c4.418 0 8-3.582 8-8s-3.582-8-8-8z"/><path d="m144 168.749c3.57-.002 6.706-2.368 7.688-5.8l16-56c1.215-4.248-1.244-8.677-5.492-9.892s-8.677 1.244-9.892 5.492l-16 56c-1.215 4.248 1.244 8.677 5.492 9.892.716.205 1.458.309 2.204.308z"/><path d="m349.8 281.057c-4.248 1.214-6.708 5.642-5.494 9.89l16 56c1.215 4.248 5.644 6.707 9.892 5.492s6.707-5.644 5.492-9.892l-16-56c-1.216-4.246-5.643-6.704-9.89-5.49z"/></g></svg>