<svg id="Layer_3" enable-background="new 0 0 64 64" height="512" viewBox="0 0 64 64" width="512" xmlns="http://www.w3.org/2000/svg"><g><path d="m62 7c.552 0 1-.447 1-1v-4c0-.553-.448-1-1-1h-60c-.552 0-1 .447-1 1v4c0 .553.448 1 1 1h1v24h-1c-.552 0-1 .447-1 1v6c0 .553.448 1 1 1h60c.552 0 1-.447 1-1v-6c0-.553-.448-1-1-1h-1v-24zm-59-4h58v2h-58zm37 28v-5c0-.553-.448-1-1-1h-14c-.552 0-1 .447-1 1v5h-13v-19.586l1.5-1.5 1.793 1.793 1.414-1.414-1.793-1.793 1.5-1.5h33.172l1.5 1.5-1.793 1.793 1.414 1.414 1.793-1.793 1.5 1.5v19.586zm-2 0h-12v-4h12zm-27-22.414v-1.586h1.586zm-2 7-3.586-3.586 3.586-3.586zm-4-1.172 3.586 3.586-3.586 3.586zm4 6v7.172l-3.586-3.586zm44-11.828-1.586-1.586h1.586zm2 11.828 3.586 3.586-3.586 3.586zm4 1.172-3.586-3.586 3.586-3.586zm-4-6v-7.172l3.586 3.586zm-47.414-8.586-2.586 2.586v-2.586zm-2.586 19.414 4 4v.586h-4zm56 10.586h-58v-4h58zm-6-6v-.586l4-4v4.586zm4-21.414-2.586-2.586h2.586z"/><path d="m37.789 18h14.422v2h-14.422z" transform="matrix(.555 -.832 .832 .555 4.23 45.903)"/><path d="m37.092 13h10.817v2h-10.817z" transform="matrix(.832 -.555 .555 .832 -.628 25.926)"/><path d="m18 11.789h2v14.422h-2z" transform="matrix(.832 -.555 .555 .832 -7.348 13.73)"/><path d="m20.5 8.592h2v10.817h-2z" transform="matrix(.555 -.832 .832 .555 -2.075 24.123)"/><circle cx="32" cy="19" r="2"/><path d="m33.5 22h-3l-2.7-3.6-1.6 1.2 3 4c.188.252.485.4.8.4h4c.315 0 .611-.148.8-.4l3-4-1.6-1.2z"/><path d="m5 51c0 1.654 1.346 3 3 3s3-1.346 3-3-1.346-3-3-3-3 1.346-3 3zm4 0c0 .552-.449 1-1 1s-1-.448-1-1 .449-1 1-1 1 .448 1 1z"/><path d="m13.219 50.375-3.699 4.625h-3.04l-3.7-4.625-1.562 1.25 3.782 4.726v5.649c0 .553.448 1 1 1h4c.552 0 1-.447 1-1v-5.649l3.781-4.726zm-6.219 10.625v-4h2v4z"/><path d="m23 54c1.654 0 3-1.346 3-3s-1.346-3-3-3-3 1.346-3 3 1.346 3 3 3zm0-4c.551 0 1 .448 1 1s-.449 1-1 1-1-.448-1-1 .449-1 1-1z"/><path d="m28.219 50.375-3.699 4.625h-3.04l-3.7-4.625-1.562 1.25 3.782 4.726v5.649c0 .553.448 1 1 1h4c.552 0 1-.447 1-1v-5.649l3.781-4.726zm-6.219 10.625v-4h2v4z"/><path d="m38 51c0 1.654 1.346 3 3 3s3-1.346 3-3-1.346-3-3-3-3 1.346-3 3zm4 0c0 .552-.449 1-1 1s-1-.448-1-1 .449-1 1-1 1 .448 1 1z"/><path d="m46.219 50.375-3.699 4.625h-3.04l-3.7-4.625-1.562 1.25 3.782 4.726v5.649c0 .553.448 1 1 1h4c.552 0 1-.447 1-1v-5.649l3.781-4.726zm-6.219 10.625v-4h2v4z"/><path d="m56 54c1.654 0 3-1.346 3-3s-1.346-3-3-3-3 1.346-3 3 1.346 3 3 3zm0-4c.551 0 1 .448 1 1s-.449 1-1 1-1-.448-1-1 .449-1 1-1z"/><path d="m61.219 50.375-3.699 4.625h-3.04l-3.7-4.625-1.562 1.25 3.782 4.726v5.649c0 .553.448 1 1 1h4c.552 0 1-.447 1-1v-5.649l3.781-4.726zm-6.219 10.625v-4h2v4z"/><path d="m51 44c0-1.654-1.346-3-3-3s-3 1.346-3 3 1.346 3 3 3 3-1.346 3-3zm-4 0c0-.552.449-1 1-1s1 .448 1 1-.449 1-1 1-1-.448-1-1z"/><path d="m41.219 44.625 4 5c.19.237.477.375.781.375h4c.304 0 .591-.138.781-.375l4-5-1.562-1.25-3.699 4.625h-3.04l-3.7-4.625z"/><path d="m35 44c0-1.654-1.346-3-3-3s-3 1.346-3 3 1.346 3 3 3 3-1.346 3-3zm-4 0c0-.552.449-1 1-1s1 .448 1 1-.449 1-1 1-1-.448-1-1z"/><path d="m38.781 44.625-1.562-1.25-3.699 4.625h-3.04l-3.7-4.625-1.562 1.25 4 5c.191.237.478.375.782.375h4c.304 0 .591-.138.781-.375z"/><path d="m19 44c0-1.654-1.346-3-3-3s-3 1.346-3 3 1.346 3 3 3 3-1.346 3-3zm-4 0c0-.552.449-1 1-1s1 .448 1 1-.449 1-1 1-1-.448-1-1z"/><path d="m9.219 44.625 4 5c.19.237.477.375.781.375h4c.304 0 .591-.138.781-.375l4-5-1.562-1.25-3.699 4.625h-3.04l-3.7-4.625z"/></g></svg>