<?xml version="1.0"?>
<svg xmlns="http://www.w3.org/2000/svg" id="Outline" viewBox="0 0 512 512" width="512" height="512"><path d="M96,352a8,8,0,0,0-16,0v73.375A24,24,0,1,0,96,448c0-.033,0-.065,0-.1ZM72,456a8,8,0,1,1,8-8.049v.074A8.008,8.008,0,0,1,72,456Z"/><path d="M96,256H64a8,8,0,0,0,0,16H96a8,8,0,0,0,0-16Z"/><path d="M397.657,125.657l22.628-22.627a8,8,0,1,0-11.314-11.314l-22.627,22.627a8,8,0,1,0,11.313,11.314Z"/><path d="M423.194,410.512a8,8,0,0,0-11.642,10.976l22.628,24a8,8,0,1,0,11.641-10.976Z"/><path d="M476.924,169.694a8,8,0,0,0-6.863-1.455l-64,16A8,8,0,0,0,400,192v73.375A24,24,0,1,0,416,288c0-.031,0-.062,0-.094v-57.66l48-12v31.132A24,24,0,1,0,480,272h0V176A8,8,0,0,0,476.924,169.694ZM392,296a8,8,0,1,1,8-8.047V288h0A8.009,8.009,0,0,1,392,296Zm24-82.245V198.246l48-12v15.507ZM456,280a8,8,0,1,1,8-8A8.009,8.009,0,0,1,456,280Z"/><path d="M144,96a8,8,0,0,0-6.059-7.761l-64-16v.007A8,8,0,0,0,72,72h0a8,8,0,0,0-8,8l0,65.376A24,24,0,1,0,80,168c0-.033,0-.065,0-.1l0-45.657,54.06,13.516A8,8,0,0,0,144,128ZM56,176a8,8,0,1,1,8-8.049v.074A8.008,8.008,0,0,1,56,176Zm72-58.246-48-12V90.246l48,12Z"/><path d="M339.13,308.937A88.066,88.066,0,0,0,280,195.343V96h8a8,8,0,0,0,7.939-7.008L297.063,80H320a8,8,0,0,0,0-16H299.063l2-16H320a8,8,0,0,0,0-16H303.063l.876-7.008A8,8,0,0,0,296,16H216a8,8,0,0,0-7.938,8.992L208.938,32H192a8,8,0,0,0,0,16h18.938l2,16H192a8,8,0,0,0,0,16h22.938l1.124,8.992A8,8,0,0,0,224,96h8v99.343a88.066,88.066,0,0,0-59.13,113.594,112,112,0,1,0,166.26,0ZM232,416h48v16H232Zm16-16V367.2a40.154,40.154,0,0,0,16,0V400Zm8-48a24,24,0,1,1,24-24A24.028,24.028,0,0,1,256,352ZM225.063,32h61.875l-6,48H231.063ZM264,96V288.805a40.154,40.154,0,0,0-16,0V96Zm-8,384a96,96,0,0,1-68.373-163.391,8.006,8.006,0,0,0,1.782-9.185A71.417,71.417,0,0,1,184,280a72.241,72.241,0,0,1,48-67.887v83.909a39.956,39.956,0,0,0,0,63.956V400h-8a8,8,0,0,0-8,8v32a8,8,0,0,0,8,8h64a8,8,0,0,0,8-8V408a8,8,0,0,0-8-8h-8V359.979a39.958,39.958,0,0,0,0-63.958V212.113A72.241,72.241,0,0,1,328,280a71.4,71.4,0,0,1-5.4,27.4,8,8,0,0,0,1.7,9.129A96,96,0,0,1,256,480Z"/></svg>
