<?xml version="1.0"?>
<svg xmlns="http://www.w3.org/2000/svg" viewBox="0 0 64 64" width="512" height="512"><g id="outline"><path d="M8,57H23a1,1,0,0,0,.2-.02l15-3a1,1,0,0,0,.511-.273A9.789,9.789,0,0,0,41,47a9.789,9.789,0,0,0-2.293-6.707,1,1,0,0,0-.511-.273l-15-3A1,1,0,0,0,23,37H8c-3.364,0-6,4.393-6,10S4.636,57,8,57Zm3.631-2a11.849,11.849,0,0,0,2.236-5.874l2.93,2.636L11.708,55Zm9.278-5.855-2.361,1.5L14.5,47l3.912-3.521,2.449,1.429a2.985,2.985,0,0,0,.053,4.237ZM15.434,55l2.906-1.849L20.394,55Zm22.048-2.916L23.3,54.921l-3.2-2.885L23.291,50h15.25A6.408,6.408,0,0,1,37.482,52.084ZM22,47a1,1,0,1,1,1,1A1,1,0,0,1,22,47Zm16.946-1c.032.324.054.656.054,1s-.022.676-.054,1H25.816a2.809,2.809,0,0,0,0-2ZM23.3,39.079l14.186,2.837A6.408,6.408,0,0,1,38.541,44H23.271l-3.3-1.926ZM20.394,39l-2.239,2.016L14.7,39Zm-3.8,3.421-2.726,2.453a12.825,12.825,0,0,0-1.609-4.982ZM8,39c1.892,0,4,3.285,4,8s-2.108,8-4,8-4-3.285-4-8S6.108,39,8,39Z"/><path d="M52,16c-5.607,0-10,2.636-10,6V37a1,1,0,0,0,.02.2l3,15a1,1,0,0,0,.273.511A9.789,9.789,0,0,0,52,55a9.789,9.789,0,0,0,6.707-2.293,1,1,0,0,0,.273-.511l3-15A1,1,0,0,0,62,37V22C62,18.636,57.607,16,52,16ZM44,28.7l2.016,3.455L44,34.394Zm.892-2.442a12.825,12.825,0,0,0,4.982,1.609l-2.453,2.726ZM49,52.541a6.408,6.408,0,0,1-2.084-1.059L44.079,37.3l2.995-3.327L49,37.271Zm4,.405c-.324.032-.656.054-1,.054s-.676-.022-1-.054V39.816a2.809,2.809,0,0,0,2,0ZM52,38a1,1,0,1,1,1-1A1,1,0,0,1,52,38Zm0-4a2.987,2.987,0,0,0-2.092.856l-1.429-2.449L52,28.5l3.521,3.912-1.429,2.449A2.987,2.987,0,0,0,52,34Zm2.126-6.133a12.825,12.825,0,0,0,4.982-1.609l-2.529,4.335Zm2.958,23.615A6.408,6.408,0,0,1,55,52.541V37.271l1.926-3.3L59.921,37.3ZM60,34.394l-2.016-2.239L60,28.7ZM52,26c-4.715,0-8-2.108-8-4s3.285-4,8-4,8,2.108,8,4S56.715,26,52,26Z"/><path d="M47.512,21.141l-1.027,1.716a11.98,11.98,0,0,0,5.7,1.485,10.224,10.224,0,0,0,5.333-1.485l-1.03-1.714A9.186,9.186,0,0,1,47.512,21.141Z"/><path d="M20,28a3,3,0,1,0,4-2.816V16.612L13,20.279v6.905a3,3,0,1,0,2,0V25.72l7-2.333v1.8A3,3,0,0,0,20,28Zm-6,3a1,1,0,1,1,1-1A1,1,0,0,1,14,31Zm1-7.387V21.721l7-2.333V21.28ZM23,27a1,1,0,1,1-1,1A1,1,0,0,1,23,27Z"/><path d="M40,12.659V6.483l-9,3.858v9.843a3,3,0,1,0,2,0V15.659Zm-7-1,5-2.142v1.824l-5,2.142ZM32,24a1,1,0,1,1,1-1A1,1,0,0,1,32,24Z"/><rect x="8" y="49" width="2" height="2"/><rect x="6" y="45" width="2" height="2"/></g></svg>
