<?xml version="1.0" encoding="iso-8859-1"?>
<!-- Generator: Adobe Illustrator 18.0.0, SVG Export Plug-In . SVG Version: 6.00 Build 0)  -->
<!DOCTYPE svg PUBLIC "-//W3C//DTD SVG 1.1//EN" "http://www.w3.org/Graphics/SVG/1.1/DTD/svg11.dtd">
<svg version="1.1" id="Capa_1" xmlns="http://www.w3.org/2000/svg" xmlns:xlink="http://www.w3.org/1999/xlink" x="0px" y="0px"
	 viewBox="0 0 297 297" style="enable-background:new 0 0 297 297;" xml:space="preserve">
<path d="M270.475,109.19c-1.739-1.501-3.961-2.327-6.259-2.327H147.86c-1.488-15.324-4.161-29.328-8.47-37.543
	c-1.484-2.83-4.282-4.734-7.459-5.076L38.764,54.218c-3.183-0.353-6.318,0.923-8.37,3.372C15.748,75.069,3.29,128.778,0.718,152.669
	c-2.819,26.196,2.667,46.215,16.305,59.501c11.134,10.847,26.948,17.044,49.766,19.499c5.397,0.581,10.455,0.874,15.207,0.874
	c15.343,0,27.5-3.054,37.568-9.337c2.995-1.869,5.755-4.039,8.294-6.483c2.927,2.86,6.168,5.531,9.715,7.987
	c16.88,11.691,40.057,18.129,65.264,18.129c25.207,0,48.384-6.438,65.264-18.129c18.636-12.907,28.9-31.717,28.9-52.966
	C297,152.032,287.889,124.214,270.475,109.19z M267.015,134.761h-22.928c-0.733-3.002-1.58-5.918-2.536-8.735h18.861
	C262.846,128.551,265.045,131.527,267.015,134.761z M235.055,164.056c0,26.718-9.039,50.188-21.341,59.128
	c-1.548,0.14-3.099,0.25-4.649,0.33v-76.299h24.775C234.635,152.644,235.055,158.293,235.055,164.056z M170.618,164.056
	c0-5.763,0.42-11.412,1.216-16.84h24.775v76.299c-1.55-0.08-3.101-0.19-4.649-0.33C179.657,214.245,170.618,190.775,170.618,164.056
	z M145.262,126.026h18.861c-0.956,2.817-1.803,5.733-2.536,8.735h-22.928C140.628,131.527,142.827,128.551,145.262,126.026z
	 M177.382,126.026h19.227v8.735h-22.167C175.288,131.721,176.271,128.801,177.382,126.026z M209.064,134.761v-8.735h19.226
	c1.111,2.776,2.094,5.695,2.941,8.735H209.064z M127.836,99.776l-22.899-2.464c0.256-6.208,0.414-11.879,0.438-16.654l18.883,2.032
	C125.735,87.148,126.919,93.065,127.836,99.776z M79.056,213.319c-3.222-0.085-6.62-0.315-10.216-0.702
	c-3.596-0.387-6.966-0.886-10.132-1.488c-1.415-4.848-2.05-15.182,0.267-36.706c1.539-14.298,5.478-43.852,9.455-68.513
	l23.516,2.531c-1.361,24.944-3.801,54.659-5.34,68.956C84.289,198.922,81.47,208.884,79.056,213.319z M70.494,93.605
	c1.098-6.261,2.167-11.861,3.154-16.361l19.298,2.077c0.008,4.608-0.14,10.307-0.399,16.658L70.494,93.605z M42.336,73.875
	l18.883,2.032c-0.993,4.67-2.045,10.244-3.116,16.365l-22.903-2.465C37.527,83.443,39.944,77.916,42.336,73.875z M19.77,154.72
	c1.487-13.812,5.93-34.802,11.412-52.818l24.859,2.675c-4.001,24.786-7.874,53.862-9.451,68.514
	c-1.636,15.199-2.031,26.327-1.109,34.447c-6.244-2.337-11.248-5.355-15.085-9.093C21.059,189.349,17.583,175.046,19.77,154.72z
	 M109.418,206.951c-4.544,2.836-10.076,4.72-16.674,5.674c2.629-7.737,4.61-18.695,6.245-33.894
	c1.577-14.65,3.98-43.884,5.345-68.955l24.855,2.675c0.069,0.85,0.133,1.705,0.195,2.565c-13.62,15.658-20.712,39.344-20.712,56.731
	c0,10.62,2.564,20.631,7.456,29.6C114.116,203.532,111.889,205.409,109.418,206.951z M127.835,171.745
	c0-7.259,1.709-16.101,4.843-24.529h26.583c-0.722,5.473-1.098,11.116-1.098,16.84c0,22.239,5.43,41.935,14.216,55.624
	C147.784,212.892,127.835,197.304,127.835,171.745z M233.295,219.68c8.786-13.689,14.216-33.385,14.216-55.624
	c0-5.724-0.376-11.367-1.098-16.84h26.583c3.133,8.428,4.843,17.27,4.843,24.529C277.838,197.304,257.889,212.892,233.295,219.68z"
	/>
<g>
</g>
<g>
</g>
<g>
</g>
<g>
</g>
<g>
</g>
<g>
</g>
<g>
</g>
<g>
</g>
<g>
</g>
<g>
</g>
<g>
</g>
<g>
</g>
<g>
</g>
<g>
</g>
<g>
</g>
</svg>
