<?xml version="1.0" encoding="iso-8859-1"?>
<!-- Generator: Adobe Illustrator 19.0.0, SVG Export Plug-In . SVG Version: 6.00 Build 0)  -->
<svg version="1.1" id="Capa_1" xmlns="http://www.w3.org/2000/svg" xmlns:xlink="http://www.w3.org/1999/xlink" x="0px" y="0px"
	 viewBox="0 0 512.001 512.001" style="enable-background:new 0 0 512.001 512.001;" xml:space="preserve">
<g>
	<g>
		<path d="M479.655,29.8C459.804,10.604,433.664,0.033,406.05,0.033c-27.613,0-53.754,10.572-73.606,29.768l-1.332,1.289
			c-32.313,31.247-41.37,79.665-22.533,120.481l33.357,72.28v243.452c0,24.629,20.036,44.665,44.665,44.665h34.655
			c24.628,0,44.664-20.036,44.664-44.665V223.957l35.107-71.241C521.437,111.297,512.849,61.9,479.655,29.8z M445.922,467.302
			c0,13.601-11.066,24.668-24.667,24.668h-34.655c-13.602,0-24.668-11.066-24.668-24.668v-152.31h44.015v64.446
			c0,5.521,4.476,9.999,9.999,9.999c5.522,0,9.999-4.477,9.999-9.999v-64.446h19.976V467.302z M361.932,294.995v-63.583H377.1
			c0.015,0,0.029,0.002,0.043,0.002c0.016,0,0.032-0.002,0.047-0.002h56.386c0.016,0,0.032,0.002,0.047,0.002
			c0.015,0,0.029-0.002,0.043-0.002h12.255v63.583H361.932z M483.088,143.878l-33.281,67.537h-4.392l8.058-48.35
			c0.908-5.446-2.772-10.599-8.219-11.507c-5.446-0.906-10.599,2.772-11.507,8.22l-8.606,51.637h-11.215v-49.994
			c0-5.521-4.476-9.999-9.999-9.999c-5.522,0-9.999,4.477-9.999,9.999v49.994h-8.303l-8.607-51.638
			c-0.907-5.445-6.06-9.125-11.507-8.219c-5.447,0.908-9.127,6.06-8.219,11.508l8.059,48.349h-7.132l-31.485-68.223
			c-15.278-33.107-7.933-72.38,18.28-97.727l1.332-1.289c33.479-32.372,85.928-32.372,119.406,0
			C492.678,70.213,499.645,110.28,483.088,143.878z"/>
	</g>
</g>
<g>
	<g>
		<path d="M133.983,320.093v-44.095c0-8.182-4.944-15.223-11.998-18.316v-61.783c0-11.077-6.065-21.207-15.829-26.44L74.16,152.315
			c-9.384-5.027-20.439-4.767-29.575,0.704c-9.135,5.467-14.588,15.088-14.588,25.735v78.927
			c-7.054,3.093-11.998,10.134-11.998,18.316v44.095C7.907,321.099,0,329.636,0,339.989v141.982
			c0,16.54,13.456,29.996,29.996,29.996h91.988c16.54,0,29.996-13.456,29.996-29.996V339.989
			C151.981,329.637,144.074,321.1,133.983,320.093z M49.994,178.754c0-5.115,3.401-7.703,4.862-8.579
			c1.462-0.875,5.35-2.649,9.858-0.234l31.996,17.144c3.255,1.744,5.276,5.121,5.276,8.813v60.101H49.994V178.754z M37.995,275.998
			h2h71.991h2v43.994h-75.99V275.998z M131.983,481.972c0,5.513-4.485,9.999-9.999,9.999h-17.998v-75.99
			c0-5.521-4.476-9.999-9.999-9.999c-5.522,0-9.999,4.477-9.999,9.999v75.99H29.996c-5.513,0-9.999-4.485-9.999-9.999V339.99
			h111.986V481.972z"/>
	</g>
</g>
<g>
	<g>
		<path d="M101.057,370.916c-1.86-1.86-4.429-2.93-7.069-2.93c-2.63,0-5.209,1.069-7.069,2.93c-1.86,1.86-2.93,4.439-2.93,7.069
			c0,2.63,1.07,5.209,2.93,7.068c1.86,1.86,4.439,2.931,7.069,2.931c2.64,0,5.209-1.07,7.069-2.931
			c1.86-1.859,2.93-4.438,2.93-7.068C103.987,375.355,102.917,372.775,101.057,370.916z"/>
	</g>
</g>
<g>
	<g>
		<path d="M293.963,246.002h-45.994v-97.988h17.01c5.522,0,9.999-4.477,9.999-9.999s-4.476-9.999-9.999-9.999h-17.01v-11.998h17.01
			c5.522,0,9.999-4.477,9.999-9.999s-4.476-9.999-9.999-9.999h-17.01V84.022h17.01c5.522,0,9.999-4.477,9.999-9.999
			s-4.476-9.999-9.999-9.999h-17.01V52.026h17.01c5.522,0,9.999-4.477,9.999-9.999s-4.476-9.999-9.999-9.999h-17.01V20.03h17.01
			c5.522,0,9.999-4.477,9.999-9.999s-4.476-9.999-9.999-9.999h-54.016c-5.522,0-9.999,4.477-9.999,9.999s4.476,9.999,9.999,9.999
			h17.009v11.998h-17.01c-5.522,0-9.999,4.477-9.999,9.999s4.476,9.999,9.999,9.999h17.01v11.998h-17.01
			c-5.522,0-9.999,4.477-9.999,9.999s4.476,9.999,9.999,9.999h17.01v11.998h-17.01c-5.522,0-9.999,4.477-9.999,9.999
			s4.476,9.999,9.999,9.999h17.01v11.998h-17.01c-5.522,0-9.999,4.477-9.999,9.999s4.476,9.999,9.999,9.999h17.01v97.988h-45.994
			c-5.522,0-9.999,4.477-9.999,9.999v111.689c0,49.181,13.474,97.406,38.966,139.462c1.813,2.99,5.054,4.815,8.551,4.815h36.949
			c3.497,0,6.739-1.826,8.551-4.815c25.492-42.057,38.966-90.282,38.966-139.462V256
			C303.961,250.478,299.485,246.002,293.963,246.002z M283.964,367.689c0,43.657-11.473,86.506-33.225,124.281h-25.54
			c-21.751-37.776-33.224-80.624-33.224-124.281v-57.696h60.253c5.522,0,9.999-4.477,9.999-9.999s-4.476-9.999-9.999-9.999h-60.253
			v-23.997h91.988V367.689z"/>
	</g>
</g>
<g>
	<g>
		<path d="M423.016,407.361c-1.86-1.86-4.439-2.93-7.069-2.93c-2.63,0-5.209,1.069-7.069,2.93c-1.86,1.86-2.93,4.438-2.93,7.069
			c0,2.63,1.07,5.209,2.93,7.068c1.86,1.87,4.439,2.931,7.069,2.931c2.63,0,5.209-1.061,7.069-2.931
			c1.86-1.859,2.93-4.429,2.93-7.068C425.946,411.799,424.876,409.221,423.016,407.361z"/>
	</g>
</g>
<g>
</g>
<g>
</g>
<g>
</g>
<g>
</g>
<g>
</g>
<g>
</g>
<g>
</g>
<g>
</g>
<g>
</g>
<g>
</g>
<g>
</g>
<g>
</g>
<g>
</g>
<g>
</g>
<g>
</g>
</svg>
