<?xml version="1.0" encoding="iso-8859-1"?>
<!-- Generator: Adobe Illustrator 19.0.0, SVG Export Plug-In . SVG Version: 6.00 Build 0)  -->
<svg xmlns="http://www.w3.org/2000/svg" xmlns:xlink="http://www.w3.org/1999/xlink" version="1.1" id="Capa_1" x="0px" y="0px" viewBox="0 0 512 512" style="enable-background:new 0 0 512 512;" xml:space="preserve" width="512" height="512">
<g>
	<g>
		<g>
			<g>
				<path style="fill:#EBEEF2;" d="M106.826,289.662H62.56c-30.409,0-55.06,24.651-55.06,55.06v57.533h154.386v-57.533      C161.886,314.313,137.235,289.662,106.826,289.662z"/>
				<path style="fill:#D1D6DE;" d="M106.826,289.662H82.98c30.409,0,55.06,24.651,55.06,55.06v57.533h23.846v-57.533      C161.886,314.313,137.235,289.662,106.826,289.662z"/>
				<polygon style="fill:#ED5575;" points="91.267,289.662 78.119,289.662 59.945,351.435 84.693,376.782 109.441,351.435     "/>
				<g>
					<path style="fill:#F9C295;" d="M84.693,109.745L84.693,109.745c-34.712,0-62.852,28.14-62.852,62.852v30.302       c0,34.712,28.14,62.852,62.852,62.852l0,0c34.712,0,62.852-28.14,62.852-62.852v-30.302       C147.545,137.885,119.405,109.745,84.693,109.745z"/>
					<path style="fill:#E59F6A;" d="M84.693,109.745c-2.188,0-4.35,0.113-6.481,0.331c25.747,3.244,45.833,29.997,45.833,62.521       v30.302c0,32.524-20.086,59.277-45.833,62.521c2.131,0.218,4.292,0.331,6.481,0.331c34.712,0,62.852-28.14,62.852-62.852       v-30.302C147.545,137.885,119.405,109.745,84.693,109.745z"/>
					<path style="fill:#444966;" d="M125.535,124.957c-1.537-1.327-3.143-2.577-4.814-3.741       c-43.183-30.101-102.902,5.073-98.932,57.115c28.607,12.682,64.948,4.983,85.955-18.209       c8.732,13.244,23.473,22.352,39.224,24.235C150.785,162.66,142.165,139.31,125.535,124.957z"/>
					<path style="fill:#2E344C;" d="M147.176,165.821c-0.044-0.409-0.104-0.814-0.155-1.221c-0.09-0.705-0.182-1.409-0.295-2.106       c-0.067-0.414-0.146-0.825-0.221-1.236c-0.125-0.687-0.256-1.371-0.404-2.05c-0.087-0.4-0.181-0.796-0.275-1.193       c-0.164-0.69-0.337-1.376-0.524-2.056c-0.101-0.369-0.206-0.737-0.313-1.104c-0.21-0.713-0.433-1.421-0.667-2.123       c-0.107-0.321-0.213-0.641-0.325-0.959c-0.269-0.765-0.555-1.522-0.853-2.274c-0.096-0.244-0.189-0.49-0.288-0.732       c-0.359-0.875-0.739-1.74-1.136-2.594c-0.051-0.11-0.099-0.223-0.151-0.333c-3.809-8.068-9.284-15.196-15.982-20.94       c0-0.002,0.001-0.005,0.002-0.007c-0.002-0.002-0.004-0.004-0.006-0.006c-0.114-0.097-0.233-0.189-0.348-0.285       c-0.482-0.407-0.968-0.808-1.461-1.201c-0.225-0.179-0.452-0.355-0.68-0.531c-0.452-0.349-0.909-0.694-1.371-1.031       c-0.269-0.197-0.54-0.392-0.813-0.585c-0.424-0.299-0.851-0.592-1.282-0.88c-0.317-0.212-0.634-0.424-0.954-0.63       c-0.387-0.249-0.778-0.491-1.171-0.731c-0.371-0.228-0.742-0.456-1.118-0.677c-0.332-0.194-0.668-0.38-1.004-0.568       c-0.442-0.249-0.883-0.498-1.332-0.736c-0.231-0.122-0.467-0.237-0.699-0.356c-2.667-1.371-5.443-2.557-8.313-3.543       c-0.054-0.019-0.107-0.036-0.161-0.055c-0.96-0.327-1.932-0.627-2.912-0.908c-0.239-0.068-0.478-0.138-0.718-0.204       c-0.483-0.132-0.968-0.26-1.456-0.381c-0.662-0.163-1.328-0.319-1.998-0.461c-0.369-0.079-0.741-0.149-1.113-0.221       c-0.619-0.12-1.24-0.232-1.866-0.333c-0.297-0.049-0.594-0.098-0.892-0.142c-0.788-0.116-1.582-0.216-2.38-0.302       c-0.236-0.026-0.472-0.052-0.709-0.075c-0.89-0.086-1.785-0.156-2.686-0.204c-0.183-0.01-0.367-0.017-0.55-0.025       c-0.963-0.044-1.93-0.073-2.904-0.073c-2.188,0-4.35,0.113-6.481,0.331c25.747,3.244,45.833,29.997,45.833,62.521v3.56       c6.918,4.452,14.903,7.388,23.5,8.304v-11.864c0-1.144-0.034-2.281-0.095-3.41c-0.019-0.353-0.055-0.701-0.08-1.053       C147.316,167.36,147.259,166.587,147.176,165.821z"/>
				</g>
			</g>
			<g>
				<path style="fill:#D1D6DE;" d="M318.29,233.27c19.529,48.749,20.273,94.303,1.656,101.761c-1.65,0.661-3.403,0.999-5.225,1.028      c-0.962,0.021-1.946-0.043-2.95-0.194c-2.564-0.375-5.247-1.283-8.031-2.676c-17.405-8.739-38.283-36.584-52.84-72.923      s-18.678-70.897-12.12-89.235c1.052-2.93,2.366-5.439,3.962-7.481c0.623-0.802,1.289-1.528,2.001-2.177      c1.338-1.237,2.84-2.203,4.49-2.864C267.85,151.052,298.762,184.52,318.29,233.27z"/>
				<path style="fill:#AFB5BF;" d="M277.208,284.161c-14.557-36.338-18.678-70.897-12.12-89.235c1.052-2.93,2.366-5.439,3.962-7.48      c0.623-0.802,1.289-1.528,2-2.177c1.338-1.237,2.84-2.203,4.49-2.864c4.539-1.818,9.81-1.198,15.468,1.478      c-14.938-19.539-30.58-29.858-41.775-25.374c-1.65,0.661-3.151,1.626-4.49,2.864c-0.711,0.649-1.378,1.375-2,2.177      c-1.596,2.042-2.91,4.551-3.962,7.481c-6.558,18.338-2.437,52.896,12.12,89.235c14.557,36.338,35.435,64.184,52.84,72.923      c0.246,0.123,0.487,0.221,0.732,0.337C294.575,320.576,284.989,303.584,277.208,284.161z"/>
				<path style="fill:#EBEEF2;" d="M250.901,260.266c14.557,36.339,35.435,64.184,52.84,72.923l-76.845-25.695l-45.589,18.263      c-8.96,3.589-18.512,3.208-26.72-0.314c-8.219-3.518-15.09-10.165-18.674-19.113c-7.169-17.896,1.519-38.221,19.427-45.394      l45.589-18.263l37.853-71.642C232.223,189.369,236.344,223.927,250.901,260.266z"/>
				<path style="fill:#D1D6DE;" d="M271.924,300.852l-50.418-16.858l-45.589,18.262c-8.96,3.589-18.512,3.208-26.72-0.314      c-6.224-2.664-11.671-7.125-15.507-13.018c-0.734,5.711-0.07,11.681,2.222,17.405c3.585,8.948,10.455,15.595,18.674,19.113      c8.208,3.522,17.76,3.903,26.72,0.314l45.589-18.262l76.845,25.695C293.665,328.13,282.427,316.658,271.924,300.852z"/>
				<path style="fill:#5C9CEE;" d="M213.682,312.787l-32.376,12.97c-8.96,3.589-18.512,3.208-26.72-0.314      c-8.219-3.518-15.09-10.165-18.674-19.113c-7.169-17.896,1.519-38.221,19.427-45.394l32.376-12.97      C191.059,271.697,199.717,293.312,213.682,312.787z"/>
				<path style="fill:#3580D3;" d="M213.682,312.787c-4.764-6.644-8.895-13.542-12.423-20.683l-25.343,10.152      c-8.96,3.589-18.512,3.208-26.72-0.314c-6.224-2.664-11.671-7.125-15.507-13.018c-0.18,1.402-0.274,2.82-0.282,4.246      c0,0.073,0.001,0.145,0.001,0.218c0,0.615,0.018,1.232,0.052,1.85c0.006,0.113,0.011,0.225,0.019,0.337      c0.042,0.66,0.101,1.32,0.181,1.981c0.003,0.028,0.005,0.055,0.009,0.083c0.087,0.699,0.197,1.399,0.327,2.097      c0.021,0.11,0.047,0.219,0.068,0.329c0.109,0.555,0.233,1.109,0.37,1.662c0.05,0.2,0.103,0.399,0.156,0.599      c0.13,0.485,0.272,0.969,0.423,1.453c0.061,0.195,0.119,0.39,0.184,0.584c0.219,0.656,0.452,1.311,0.713,1.962      c0.001,0.001,0.001,0.003,0.002,0.005c0.756,1.888,1.667,3.667,2.698,5.343c3.854,6.265,9.492,10.995,15.977,13.771      c7.695,3.302,16.571,3.843,25.033,0.941c0.564-0.194,1.126-0.402,1.687-0.627L213.682,312.787z"/>
				<path style="fill:#EBEEF2;" d="M181.306,325.757c-2.062,0.826-4.156,1.432-6.257,1.848l13.51,33.724      c2.622,6.545,10.053,9.725,16.598,7.103s9.725-10.053,7.103-16.598l-13.282-33.157L181.306,325.757z"/>
				<path style="fill:#ED5575;" d="M284.596,246.768c-3.342-8.344-12.816-12.398-21.159-9.055l-18.09,7.247      c1.644,5.04,3.49,10.154,5.555,15.306c2.064,5.152,4.259,10.127,6.549,14.908l18.09-7.247      C283.884,264.585,287.938,255.111,284.596,246.768z"/>
			</g>
		</g>
		<circle style="fill:#F2DF33;" cx="476.894" cy="256" r="27.606"/>
		<circle style="fill:#F2DF33;" cx="389.551" cy="45.135" r="27.606"/>
		<circle style="fill:#F2DF33;" cx="389.551" cy="466.865" r="27.606"/>
	</g>
	<g>
		<path d="M161.886,352c-4.143,0-7.5,3.357-7.5,7.5v35.255H15v-50.033c0-26.225,21.335-47.56,47.56-47.56h5.535L52.75,349.317    c-0.766,2.603-0.066,5.416,1.829,7.356l24.748,25.347c1.411,1.445,3.346,2.261,5.366,2.261s3.955-0.815,5.366-2.261l24.748-25.347    c1.896-1.94,2.595-4.754,1.829-7.356l-15.345-52.155h2.116c4.143,0,7.5-3.357,7.5-7.5s-3.357-7.5-7.5-7.5H91.267H78.119H62.56    c-34.495,0-62.56,28.064-62.56,62.56v57.533c0,4.143,3.357,7.5,7.5,7.5h154.386c4.143,0,7.5-3.357,7.5-7.5V359.5    C169.386,355.357,166.028,352,161.886,352z M85.655,297.162l15.352,52.176l-16.313,16.708L68.38,349.338l15.351-52.176H85.655z"/>
		<path d="M84.693,273.377c1.151,0.003,2.304-0.024,3.455-0.083c26.722-1.369,51.817-19.549,61.565-44.467    c5.339-13.649,6.287-28.607,6.094-43.261c-0.199-15.118-1.645-30.597-8.111-44.264c-6.182-13.064-16.845-23.878-29.612-30.653    c-12.296-6.524-26.538-9.11-40.365-7.811c-8.085,0.76-34.627,4.994-33.632,16.904c0.257,3.072,2.738,5.821,5.768,6.391    c3.487,0.655,6.854-1.314,10.022-2.912c17.151-8.654,38.859-7.479,54.976,2.974s26.042,29.795,25.136,48.984    c-8.933-2.325-17.03-7.744-22.585-15.117c-2.388-3.169-4.877-7.038-8.827-7.411c-3.894-0.368-7.052,2.876-9.838,5.621    c-17.817,17.554-46.066,23.595-69.504,14.863c-0.008-8.592,1.999-17.18,5.815-24.879c2.038-4.111,4.55-9.202,1.828-12.895    c-2.134-2.894-6.674-3.05-9.754-1.195s-4.968,5.162-6.419,8.453c-4.977,11.289-6.324,23.821-6.888,36.146    c-0.879,19.212,0.163,39.179,8.765,56.38C34.034,258.043,59.137,273.303,84.693,273.377z M29.341,189.062    c7.364,2.118,14.974,3.213,22.748,3.213c20.301,0,39.867-7.544,54.91-20.944c8.674,9.874,20.206,16.675,33.046,19.487v12.083    c0,30.521-24.831,55.352-55.352,55.352c-30.521,0-55.353-24.831-55.353-55.352V189.062z"/>
		<path d="M340.82,306.312c0.2-4.137-2.991-7.653-7.128-7.854c-4.178-0.202-7.654,2.991-7.854,7.129    c-0.588,12.135-3.833,20.539-8.682,22.481c-0.776,0.312-1.636,0.477-2.602,0.492c-0.531,0.009-1.091-0.026-1.698-0.117    c-1.724-0.252-3.658-0.911-5.741-1.953c-0.003-0.002-0.006-0.004-0.01-0.005c-10.612-5.328-22.782-19.103-33.65-37.314    c-1.924-3.225-3.805-6.594-5.631-10.074l10.504-4.208c12.17-4.873,18.104-18.739,13.229-30.909v-0.001    c-2.361-5.896-6.877-10.518-12.716-13.016c-5.837-2.498-12.301-2.574-18.194-0.212l-10.504,4.208    c-7.19-25.121-9.006-48.24-4.299-61.402c0-0.001,0-0.002,0.001-0.003c0.79-2.2,1.734-4.011,2.827-5.409    c0.355-0.458,0.733-0.872,1.161-1.263c0.686-0.633,1.402-1.095,2.189-1.41c5.651-2.265,15.573,3.262,25.888,14.43    c12.437,13.463,24.305,33.407,33.418,56.157c5.508,13.748,9.701,27.896,12.127,40.917c0.758,4.072,4.669,6.762,8.747,5.999    c4.071-0.759,6.758-4.675,5.999-8.747c-2.641-14.172-6.997-28.891-12.949-43.747c-9.776-24.406-22.677-45.983-36.323-60.758    c-15.301-16.564-30.388-23.021-42.484-18.175c-2.481,0.994-4.767,2.446-6.755,4.285c-1.026,0.936-1.993,1.986-2.854,3.099    c-1.936,2.477-3.559,5.484-4.855,8.919l-36.396,68.884l-43.032,17.239c-21.71,8.696-32.298,33.435-23.601,55.146    c4.213,10.516,12.27,18.761,22.679,23.216c0.66,0.283,1.325,0.549,1.994,0.797c0.222,0.082,0.446,0.152,0.669,0.231    c0.449,0.158,0.897,0.319,1.349,0.462c0.266,0.084,0.534,0.154,0.801,0.233c0.412,0.121,0.824,0.247,1.239,0.355    c0.284,0.075,0.571,0.136,0.857,0.204c0.4,0.096,0.799,0.195,1.201,0.279c0.295,0.062,0.591,0.11,0.887,0.166    c0.395,0.074,0.789,0.151,1.186,0.213c0.302,0.047,0.605,0.083,0.907,0.123c0.391,0.053,0.782,0.108,1.174,0.15    c0.307,0.033,0.615,0.054,0.923,0.08c0.389,0.033,0.778,0.067,1.168,0.089c0.31,0.017,0.621,0.023,0.932,0.034    c0.387,0.013,0.774,0.027,1.162,0.03c0.078,0,0.155,0.006,0.233,0.006c0.268,0,0.535-0.014,0.802-0.019    c0.329-0.006,0.658-0.01,0.988-0.024c0.043-0.002,0.086-0.001,0.129-0.003l11.368,28.377c2.013,5.025,5.862,8.966,10.839,11.096    c2.562,1.097,5.265,1.646,7.971,1.646c2.549,0,5.101-0.488,7.539-1.465c5.025-2.013,8.966-5.862,11.096-10.839    s2.194-10.484,0.181-15.51l-10.493-26.194l18.399-7.371l73.803,24.677c3.337,1.612,6.614,2.668,9.722,3.123    c1.247,0.188,2.497,0.283,3.692,0.283c0.166,0,0.332-0.002,0.496-0.006c2.758-0.044,5.413-0.571,7.894-1.565    C330.345,338.944,339.659,330.28,340.82,306.312z M266.226,244.675c2.178-0.872,4.563-0.843,6.715,0.078    c2.154,0.922,3.821,2.628,4.693,4.803c1.799,4.492-0.392,9.61-4.883,11.409l-11.47,4.594c-0.114-0.257-0.228-0.514-0.341-0.772    c-0.374-0.85-0.743-1.702-1.106-2.556c-0.154-0.362-0.309-0.722-0.462-1.086c-0.513-1.222-1.019-2.445-1.509-3.669    c-0.489-1.22-0.966-2.451-1.437-3.686c-0.143-0.375-0.283-0.75-0.424-1.126c-0.327-0.869-0.648-1.741-0.965-2.616    c-0.094-0.26-0.188-0.52-0.281-0.78L266.226,244.675z M142.874,303.541c-5.621-14.032,1.223-30.022,15.255-35.644l23.767-9.521    c3.685,18.16,10.517,35.215,20.39,50.896l-23.768,9.521c-1.564,0.627-3.222,1.115-4.924,1.452    c-0.042,0.008-0.082,0.023-0.124,0.032c-5.33,1.031-10.837,0.455-15.932-1.732C150.805,315.666,145.597,310.336,142.874,303.541z     M205.252,358.653c-0.554,1.293-1.577,2.293-2.884,2.816s-2.737,0.506-4.029-0.047c-1.294-0.554-2.294-1.578-2.817-2.884    l-10.493-26.193l9.777-3.917l10.493,26.194C205.822,355.929,205.805,357.36,205.252,358.653z M229.251,300.518    c-0.637-0.119-1.28-0.198-1.93-0.222c-3.802-0.138-7.38,1.634-10.77,3.362c-10.201-15.406-17.213-32.913-20.466-51.102    c3.606-1.045,7.381-2.187,10.016-4.862c1.514-1.536,2.54-3.475,3.545-5.384c3.156-5.994,6.312-11.988,9.468-17.983    c3.08-5.849,5.73-12.844,9.682-18.099c2.456,9.246,3.272,19.051,5.715,28.39c2.534,9.688,5.68,19.215,9.409,28.508    c7.375,18.384,17.032,35.857,28.737,51.839c-13.007-4.399-26.013-8.797-39.02-13.196    C232.199,301.285,230.741,300.795,229.251,300.518z"/>
		<path d="M476.894,220.894c-16.783,0-30.846,11.842-34.292,27.606h-38.929c-1.782-54.82-23.078-106.26-60.593-146.295    l27.518-27.517c5.604,3.61,12.127,5.553,18.953,5.553c9.377,0,18.193-3.651,24.823-10.282    c6.631-6.631,10.283-15.446,10.283-24.824c0-9.377-3.651-18.193-10.282-24.824s-15.447-10.282-24.824-10.282    c-9.378,0-18.193,3.652-24.824,10.282c-6.631,6.631-10.282,15.447-10.282,24.824c0,6.822,1.942,13.342,5.548,18.944    l-32.736,32.736c-1.406,1.407-2.196,3.314-2.196,5.304s0.79,3.896,2.196,5.304c39.693,39.691,61.554,92.456,61.554,148.571    s-21.86,108.88-61.554,148.571c-0.733,0.734-1.299,1.607-1.673,2.558c-0.335,0.848-0.521,1.771-0.523,2.736v0.001    c0,0.004,0,0.007,0,0.011s0,0.008,0,0.012s0,0.008,0,0.012s0,0.007,0,0.01c0,0.001,0,0.001,0,0.002    c0.005,1.438,0.413,2.779,1.119,3.918c0.303,0.49,0.664,0.948,1.078,1.363l32.739,32.727c-3.609,5.604-5.552,12.126-5.552,18.95    c0,9.377,3.651,18.193,10.282,24.823c6.631,6.631,15.446,10.283,24.824,10.283c9.377,0,18.193-3.651,24.824-10.282    s10.282-15.447,10.282-24.824c0-9.378-3.652-18.193-10.282-24.824c-6.631-6.631-15.447-10.282-24.824-10.282    c-6.823,0-13.344,1.942-18.947,5.549l-27.53-27.519c37.516-40.033,58.813-91.47,60.598-146.289h38.929    c3.446,15.765,17.508,27.606,34.292,27.606C496.251,291.106,512,275.357,512,256S496.251,220.894,476.894,220.894z     M375.334,30.918C375.334,30.917,375.334,30.917,375.334,30.918c3.797-3.798,8.846-5.89,14.217-5.89    c5.37,0,10.42,2.092,14.217,5.89c3.798,3.797,5.89,8.847,5.89,14.217c0,5.371-2.092,10.42-5.89,14.217    c-3.797,3.798-8.847,5.89-14.217,5.89c-5.358,0-10.394-2.083-14.188-5.863c-0.01-0.01-0.019-0.022-0.029-0.032    c-0.01-0.01-0.02-0.017-0.029-0.027c-3.777-3.793-5.859-8.828-5.859-14.184C369.444,39.765,371.536,34.715,375.334,30.918z     M403.768,452.648C403.769,452.648,403.769,452.648,403.768,452.648c3.798,3.797,5.89,8.846,5.89,14.217    c0,5.37-2.092,10.42-5.89,14.217c-3.797,3.798-8.847,5.89-14.217,5.89c-5.371,0-10.42-2.092-14.217-5.89    c-3.798-3.797-5.89-8.847-5.89-14.217c0-5.371,2.092-10.42,5.89-14.218c3.797-3.797,8.846-5.889,14.217-5.889    C394.921,446.759,399.971,448.851,403.768,452.648z M476.894,276.106c-11.087,0-20.106-9.02-20.106-20.106    s9.02-20.106,20.106-20.106S497,244.913,497,256S487.98,276.106,476.894,276.106z"/>
	</g>
</g>















</svg>
