<?xml version="1.0"?>
<svg xmlns="http://www.w3.org/2000/svg" id="Layer_1" enable-background="new 0 0 512 512" height="512px" viewBox="0 0 512 512" width="512px" class=""><g><g><path d="m205.182 143.679h95.259c8.284 0 15-6.716 15-15s-6.716-15-15-15h-95.259c-8.284 0-15 6.716-15 15s6.715 15 15 15z" data-original="#000000" class="active-path" data-old_color="#000000" fill="#80858A"/><path d="m366.03 0h-351.03c-8.284 0-15 6.716-15 15v482c0 8.284 6.716 15 15 15h351.03c8.284 0 15-6.716 15-15v-482c0-8.284-6.716-15-15-15zm-15 482h-321.03v-452h321.03z" data-original="#000000" class="active-path" data-old_color="#000000" fill="#80858A"/><path d="m512 363.502v-312.591c0-28.072-22.839-50.911-50.911-50.911-28.073 0-50.912 22.839-50.912 50.911v312.59c0 7.826 5.996 14.245 13.643 14.931l-12.748 35.22c-1.34 3.703-1.171 7.784.472 11.362l35.912 78.242c2.445 5.328 7.771 8.743 13.633 8.743s11.188-3.415 13.633-8.743l35.911-78.242c1.643-3.579 1.812-7.66.472-11.362l-12.748-35.22c7.647-.686 13.643-7.104 13.643-14.93zm-71.823-15v-223.596h41.823v223.595h-41.823zm20.912-318.502c11.53 0 20.911 9.381 20.911 20.911v43.995h-41.823v-43.995c0-11.53 9.381-20.911 20.912-20.911zm0 431.041-19.716-42.956 14.327-39.584h10.777l14.328 39.584z" data-original="#000000" class="active-path" data-old_color="#000000" fill="#80858A"/><path d="m90.701 157.197c2.813 2.813 6.628 4.394 10.606 4.394s7.794-1.581 10.606-4.393l45.563-45.563c5.858-5.858 5.858-15.355 0-21.213-5.857-5.858-15.355-5.858-21.213 0l-34.956 34.956-10.866-10.868c-5.856-5.858-15.354-5.858-21.213 0-5.858 5.858-5.858 15.355 0 21.213z" data-original="#000000" class="active-path" data-old_color="#000000" fill="#80858A"/><path d="m205.182 234.684h95.259c8.284 0 15-6.716 15-15s-6.716-15-15-15h-95.259c-8.284 0-15 6.716-15 15s6.715 15 15 15z" data-original="#000000" class="active-path" data-old_color="#000000" fill="#80858A"/><path d="m90.701 248.201c2.813 2.813 6.628 4.394 10.606 4.394s7.794-1.581 10.606-4.393l45.563-45.563c5.858-5.858 5.858-15.355 0-21.213-5.857-5.858-15.355-5.858-21.213 0l-34.956 34.956-10.866-10.866c-5.856-5.858-15.354-5.858-21.213 0-5.858 5.858-5.858 15.355 0 21.213z" data-original="#000000" class="active-path" data-old_color="#000000" fill="#80858A"/><path d="m205.182 325.688h95.259c8.284 0 15-6.716 15-15s-6.716-15-15-15h-95.259c-8.284 0-15 6.716-15 15s6.715 15 15 15z" data-original="#000000" class="active-path" data-old_color="#000000" fill="#80858A"/><path d="m205.182 420.178h95.259c8.284 0 15-6.716 15-15s-6.716-15-15-15h-95.259c-8.284 0-15 6.716-15 15s6.715 15 15 15z" data-original="#000000" class="active-path" data-old_color="#000000" fill="#80858A"/><path d="m90.701 339.206c2.813 2.813 6.628 4.394 10.606 4.394s7.794-1.581 10.606-4.393l45.563-45.562c5.858-5.858 5.858-15.355 0-21.213-5.857-5.858-15.355-5.857-21.213 0l-34.956 34.956-10.866-10.868c-5.856-5.858-15.354-5.858-21.213 0s-5.858 15.355 0 21.213z" data-original="#000000" class="active-path" data-old_color="#000000" fill="#80858A"/></g></g> </svg>
